<svg width="496" height="109" viewBox="0 0 496 109" fill="none" xmlns="http://www.w3.org/2000/svg">
<rect x="1" y="1.5" width="494" height="106" fill="#A10E2F"/>
<rect x="1" y="1.5" width="494" height="106" stroke="white" stroke-width="2"/>
<path fill-rule="evenodd" clip-rule="evenodd" d="M58.6133 74.1277C58.3569 74.1277 58.2334 74.3099 58.2334 74.9743C58.2334 75.6386 58.3287 75.8209 58.6133 75.8209C58.8685 75.8209 58.992 75.6386 58.992 74.9743C58.992 74.3099 58.8968 74.1277 58.6133 74.1277Z" fill="white"/>
<path fill-rule="evenodd" clip-rule="evenodd" d="M79.6987 41.4153C79.1035 41.4153 78.6166 41.9714 78.6166 42.6499V68.5674C78.6166 69.2459 78.0602 69.802 77.3816 69.802H59.7858C59.1083 69.802 58.5519 69.2459 58.5519 68.5674V56.8397C58.5519 56.1613 57.9968 55.6063 57.3169 55.6063H50.5256C49.847 55.6063 49.2918 56.1613 49.2918 56.8397V68.5674C49.2918 69.2459 48.7355 69.802 48.0556 69.802H30.4586C29.78 69.802 29.2236 69.2459 29.2236 68.5674V42.6499C29.2236 41.9714 28.7367 41.4153 28.1415 41.4153C27.5464 41.4153 27.5405 41.1378 28.1286 40.798L28.1545 40.7839C28.7426 40.4429 29.7047 39.8879 30.294 39.5481L52.8521 26.5293C53.4402 26.1895 54.4023 26.1895 54.9904 26.5293L79.7128 40.798C80.3009 41.1378 80.2938 41.4153 79.6987 41.4153ZM67.2522 78.4502H65.8937V74.931H64.9163V74.0832C65.749 74.0761 66.0984 73.908 66.2736 73.2789H67.2522V78.4502ZM64.5105 77.486H64.0577V78.4502H62.7862V77.486H60.9467V76.4642L62.5827 73.3824H64.0577V76.5077H64.5105V77.486ZM60.395 76.055C60.395 77.6471 60.1551 78.5525 58.6131 78.5525C57.2781 78.5525 56.9841 77.9093 56.9782 77.2226H58.2473C58.2555 77.4002 58.2838 77.5225 58.3508 77.6036C58.4084 77.6765 58.4967 77.7059 58.619 77.7059C58.8178 77.7059 58.993 77.5448 58.993 77.2226V76.3984H58.9777C58.8613 76.6394 58.5037 76.8005 58.1097 76.8005C57.3722 76.8005 56.8747 76.4431 56.8747 75.2296C56.8747 73.8269 57.4957 73.2789 58.606 73.2789C59.7881 73.2789 60.395 73.7975 60.395 75.486V76.055ZM55.8514 78.4502H54.4906V74.931H53.512V74.0832C54.3447 74.0761 54.6952 73.908 54.8716 73.2789H55.8514V78.4502ZM50.7115 78.4502H51.9394V77.0039H50.7115V78.4502ZM50.1045 75.3837H49.5858V77.2673C49.5858 77.4943 49.6882 77.5742 49.8999 77.5742H50.1045V78.4502C49.8634 78.4796 49.6082 78.4937 49.3882 78.4937C48.5849 78.4937 48.2709 78.3632 48.2709 77.486V75.3837H47.8321V74.4983H48.2709V73.3389H49.5858V74.4983H50.1045V75.3837ZM45.7773 78.5525C44.6741 78.5525 44.2283 78.0857 44.2283 77.2226H45.3821C45.3821 77.3767 45.4139 77.5225 45.4774 77.6107C45.5433 77.6989 45.6374 77.7494 45.7562 77.7494C45.9596 77.7494 46.1349 77.626 46.1349 77.4131C46.1349 76.7123 44.2283 77.1286 44.2283 75.6318C44.2283 74.9368 44.7317 74.3971 45.7997 74.3971C46.7865 74.3971 47.2817 74.8134 47.2817 75.6388H46.1431C46.1431 75.3025 46.0114 75.2002 45.7914 75.2002C45.595 75.2002 45.4551 75.3166 45.4551 75.5083C45.4551 76.1573 47.3628 75.7199 47.3628 77.2309C47.3628 77.9975 46.7712 78.5525 45.7773 78.5525ZM43.7461 78.4502H40.588V73.2354H43.6778V74.3466H41.9465V75.2379H43.5684V76.3032H41.9465V77.3402H43.7461V78.4502ZM82.6521 35.368L56.0596 20.02C54.8834 19.3403 52.9603 19.3403 51.7841 20.02L25.1893 35.368C24.0119 36.0465 23.0498 37.7126 23.0498 39.0707V69.7679C23.0498 71.126 24.0119 72.7921 25.1893 73.4706L51.7841 88.8186C52.9603 89.4982 54.8834 89.4982 56.0596 88.8186L82.6521 73.4706C83.8271 72.7921 84.7904 71.126 84.7904 69.7679V39.0707C84.7904 37.7126 83.8271 36.0465 82.6521 35.368Z" fill="white"/>
<path fill-rule="evenodd" clip-rule="evenodd" d="M61.9688 76.5079H62.8297V74.7842H62.8168L61.9688 76.5079Z" fill="white"/>
<path fill-rule="evenodd" clip-rule="evenodd" d="M176.864 54.4946C183.337 54.4946 186.531 57.8598 186.531 57.8598L183.419 63.7989C183.419 63.7989 180.395 61.1827 176.78 61.1827C175.268 61.1827 173.586 61.8471 173.586 63.5097C173.586 67.2488 187.118 66.5845 187.118 75.9699C187.118 80.9154 183.294 85.193 176.526 85.193C169.467 85.193 165.56 80.9554 165.56 80.9554L169.426 75.4302C169.426 75.4302 172.831 78.505 176.612 78.505C178.125 78.505 179.763 77.9217 179.763 76.1368C179.763 72.6047 166.231 72.7305 166.231 63.5908C166.231 58.1079 170.897 54.4946 176.864 54.4946ZM462.045 54.4946C468.518 54.4946 471.712 57.8598 471.712 57.8598L468.603 63.7989C468.603 63.7989 465.577 61.1827 461.964 61.1827C460.452 61.1827 458.77 61.8471 458.77 63.5097C458.77 67.2488 472.303 66.5845 472.303 75.9699C472.303 80.9154 468.477 85.193 461.71 85.193C454.648 85.193 450.741 80.9554 450.741 80.9554L454.608 75.4302C454.608 75.4302 458.013 78.505 461.794 78.505C463.307 78.505 464.947 77.9217 464.947 76.1368C464.947 72.6047 451.413 72.7305 451.413 63.5908C451.413 58.1079 456.08 54.4946 462.045 54.4946ZM311.81 54.9911V73.7701C311.81 76.8837 313.869 78.5463 317.021 78.5463C320.173 78.5463 322.231 76.8837 322.231 73.7701V54.9911H329.587V73.7701C329.587 80.4582 324.629 85.1921 317.062 85.1921C309.414 85.1921 304.456 80.4582 304.456 73.7701V54.9911H311.81ZM112.322 54.9911L116.694 67.5383C117.364 69.4478 118.205 72.4403 118.205 72.4403H118.29C118.29 72.4403 119.131 69.4478 119.804 67.5383L124.173 54.9911H132.159L134.596 84.6947H127.243L126.318 71.3197C126.15 69.0751 126.318 66.3342 126.318 66.3342H126.233C126.233 66.3342 125.226 69.4478 124.553 71.3197L121.402 79.9174H115.096L111.944 71.3197C111.274 69.4478 110.262 66.3342 110.262 66.3342H110.181C110.181 66.3342 110.348 69.0751 110.181 71.3197L109.255 84.6947H101.858L104.339 54.9911H112.322ZM235.363 54.9911V61.2253H223.889V66.6247H233.052V72.8565H223.889V78.464H235.951V84.6947H216.535V54.9911H235.363ZM342.693 54.9915V84.6952H335.339V54.9915H342.693ZM355.994 54.9911V78.464H368.266V84.6947H348.64V54.9911H355.994ZM420.234 54.9911V61.2253H408.759V66.6247H417.924V72.8565H408.759V78.464H420.819V84.6947H401.404V54.9911H420.234ZM213.973 54.9907V61.2249H204.852V84.6944H197.497V61.2249H188.378V54.9907H213.973ZM435.87 54.9913C438.936 54.9913 440.41 55.2006 441.712 55.6991C445.117 56.9867 447.258 60.0179 447.258 64.3367C447.258 67.4962 445.744 70.9437 442.76 72.4405V72.524L442.776 72.5442C442.858 72.6527 443.264 73.2021 443.898 74.3089L449.738 84.6938H441.545L436.206 74.6828H432.759V84.6938H425.403V54.9913H435.87ZM154.542 54.9907L164.754 84.6944H157.188L155.338 78.4637H145.967L144.161 84.6944H136.595L146.808 54.9907H154.542ZM251.001 54.9913C254.068 54.9913 255.538 55.2006 256.841 55.6991C260.246 56.9867 262.388 60.0179 262.388 64.3367C262.388 67.4962 260.875 70.9437 257.891 72.4405V72.524C257.891 72.524 258.311 73.0637 259.025 74.3089L264.87 84.6938H256.673L251.335 74.6828H247.888V84.6938H240.536V54.9913H251.001ZM289.159 54.9908C295.169 54.9908 299.37 57.6517 299.37 62.7618C299.37 65.2534 298.152 67.7861 295.883 69.076V69.1595C299.329 70.1978 300.59 73.2302 300.59 75.8464C300.59 82.3264 295.128 84.6945 289.159 84.6945H278.105V54.9908H289.159ZM381.641 54.9908C391.097 54.9908 397.148 60.4361 397.148 69.7815C397.148 79.1281 391.097 84.6945 381.641 84.6945H370.966V54.9908H381.641ZM289.914 72.3154H285.46V78.4638H289.873C292.015 78.4638 293.068 77.0105 293.068 75.3479C293.068 73.6876 292.056 72.3154 289.914 72.3154ZM381.346 61.225H378.319V78.4638H381.346C386.434 78.4638 389.542 75.4725 389.542 69.7815C389.542 64.1305 386.306 61.225 381.346 61.225ZM150.715 61.7658H150.633C150.633 61.7658 149.96 65.0064 149.413 66.8748L147.69 72.6481H153.617L151.935 66.8748C151.389 65.0064 150.715 61.7658 150.715 61.7658ZM250.371 61.2243H247.888V68.4521H251.083C253.437 68.4521 254.907 67.1623 254.907 64.7977C254.907 62.5542 254.068 61.2243 250.371 61.2243ZM435.241 61.2243H432.759V68.4521H435.955C438.308 68.4521 439.779 67.1623 439.779 64.7977C439.779 62.5542 438.936 61.2243 435.241 61.2243ZM289.115 61.225H285.46V66.4998H289.242C291.091 66.4998 291.89 65.1711 291.89 63.7589C291.89 62.3868 291.091 61.225 289.115 61.225Z" fill="white"/>
<path fill-rule="evenodd" clip-rule="evenodd" d="M247.542 26.1921C253.49 26.1921 258.096 30.4491 258.096 35.9562C258.096 41.5985 253.49 45.9974 247.542 45.9974C241.583 45.9974 236.956 41.5985 236.956 35.9562C236.956 30.4491 241.583 26.1921 247.542 26.1921ZM303.085 26.1921C309.034 26.1921 313.647 30.4491 313.647 35.9562C313.647 41.5985 309.034 45.9974 303.085 45.9974C297.127 45.9974 292.499 41.5985 292.499 35.9562C292.499 30.4491 297.127 26.1921 303.085 26.1921ZM114.688 26.5166V28.8477H106.227V35.1449H113.432V37.476H106.227V45.6716H103.344V26.5166H114.688ZM130.624 26.5166V28.8477H121.549V34.8472H128.931V37.1761H121.549V43.3382H131.11V45.6716H118.658V26.5166H130.624ZM169.534 26.5166V28.8477H160.456V34.8472H167.841V37.1761H160.456V43.3382H170.022V45.6716H157.573V26.5166H169.534ZM265.73 26.5166L274.875 38.9645C275.64 39.9995 276.602 41.7352 276.602 41.7352H276.663C276.663 41.7352 276.454 40.0247 276.454 38.9645V26.5166H279.342V45.6716H276.512L267.323 33.242C266.568 32.1795 265.603 30.4484 265.603 30.4484H265.545C265.545 30.4484 265.752 32.1566 265.752 33.242V45.6716H262.856V26.5166H265.73ZM329.76 26.5166V28.8477H321.293V35.1449H328.512V37.476H321.293V45.6716H318.409V26.5166H329.76ZM142.202 26.5159C148.508 26.5159 152.649 30.0126 152.649 36.0694C152.649 42.1422 148.508 45.6709 142.202 45.6709H135.376V26.5159H142.202ZM180.587 26.5159C182.747 26.5159 183.653 26.6785 184.447 26.9487C186.543 27.6792 187.904 29.605 187.904 32.1307C187.904 34.5695 186.449 36.6373 184.204 37.3151V37.3609C184.204 37.3609 184.447 37.6128 184.819 38.2356L189.196 45.6709H185.929L181.583 38.0433H177.174V45.6709H174.289V26.5159H180.587ZM202.327 26.5155L209.733 45.6704H206.724L204.659 40.1587H196.898L194.858 45.6704H191.877L199.293 26.5155H202.327ZM225.768 26.518V28.8491H218.705V45.6707H215.819V28.8491H208.763V26.518H225.768ZM232.2 26.515V45.67H229.314V26.515H232.2ZM247.542 28.6263C243.337 28.6263 239.926 31.7772 239.926 35.9562C239.926 40.2704 243.337 43.5221 247.542 43.5221C251.734 43.5221 255.12 40.2704 255.12 35.9562C255.12 31.7772 251.734 28.6263 247.542 28.6263ZM303.085 28.6263C298.885 28.6263 295.473 31.7772 295.473 35.9562C295.473 40.2704 298.885 43.5221 303.085 43.5221C307.29 43.5221 310.674 40.2704 310.674 35.9562C310.674 31.7772 307.29 28.6263 303.085 28.6263ZM142 28.8493H138.264V43.3375H142C146.637 43.3375 149.669 40.7797 149.669 36.0694C149.669 31.3774 146.606 28.8493 142 28.8493ZM200.833 29.1466H200.775C200.775 29.1466 200.306 30.8846 199.968 31.8532L197.653 37.9352H203.899L201.625 31.8532C201.268 30.8846 200.833 29.1466 200.833 29.1466ZM180.497 28.8493H177.174V35.7099H181.323C183.563 35.7099 184.964 34.3863 184.964 32.243C184.964 30.8278 184.386 29.8248 183.325 29.2821C182.773 29.0142 182.11 28.8493 180.497 28.8493Z" fill="white"/>
</svg>
