<?xml version="1.0" encoding="UTF-8"?>
<svg id="Layer_1" data-name="Layer 1" xmlns="http://www.w3.org/2000/svg" viewBox="0 0 740 160">
  <defs>
    <style>
      .cls-1 {
        fill: #fff;
      }
    </style>
  </defs>
  <g id="Layer_1-2" data-name="Layer 1">
    <g id="N">
      <path class="cls-1" d="M10.95,64.53h27.69l8.61,10.6.15-10.6h15.52v36.34s-28.39,0-28.39,0l-9.31-10.43-.19,10.43h-14.23s-1.28,0-1.28-1.27v-33.58s-.02-1.48,1.43-1.48Z"/>
    </g>
    <g id="I">
      <path class="cls-1" d="M69.16,8.33h27.47s2.53.18,2.53,3.07v21.82h-33.38V12.08s-.14-3.75,3.38-3.75Z"/>
      <path class="cls-1" d="M65.78,149.99V36.02h33.45v113.97s0,2.77-2.23,2.77h-29.03s-2.18.08-2.18-2.77Z"/>
    </g>
    <g id="C">
      <path class="cls-1" d="M104.12,64.53h51.38s2.14.09,2.14,2.14v14.94h-27.09v-12.01s0-1.56-1.02-1.56c0,0-1.12-.07-1.12,1.55v25.66s-.12,2.02,1.1,2.02c0,0,1.05.01,1.05-2.02v-11.46l27.08.02v14.93s-.03,2.14-2.13,2.14h-51.38s-2.07-.04-2.07-2.14v-32.06s0-2.14,2.07-2.14Z"/>
    </g>
    <g id="E">
      <path class="cls-1" d="M172,64.53h51.17v9.97h-31.36s-1.48.01-1.48,1.48c0,.12.04,1.38,1.48,1.38h31.36v10.7h-31.36s-1.41.02-1.41,1.49c0,0-.03,1.35,1.44,1.35h31.32v9.96h-51.17s-2.26,0-2.26-2.31v-31.75s0-2.28,2.26-2.28Z"/>
    </g>
    <g id="I-2" data-name="I">
      <rect class="cls-1" x="225.99" y="64.53" width="27.11" height="36.34"/>
    </g>
    <g id="C-2" data-name="C">
      <path class="cls-1" d="M258.02,64.49h51.38s2.14.09,2.14,2.14v14.94h-27.09v-12.01s0-1.56-1.02-1.56c0,0-1.12-.07-1.12,1.55v25.66s-.12,2.02,1.1,2.02c0,0,1.05.01,1.05-2.02v-11.46l27.08.02v14.93s-.03,2.13-2.14,2.13h-51.38s-2.07-.04-2.07-2.13v-32.06s0-2.15,2.07-2.15Z"/>
    </g>
  </g>
  <g>
    <path class="cls-1" d="M534.48,76.97l8.19-17.61h13.91l-15.63,28.95v18.55h-12.93v-18.16l-15.63-29.34h13.97l8.12,17.61Z"/>
    <path class="cls-1" d="M589.91,106.86h-28.21v-47.51h28.21v10.3h-15.37v7.47h14.23v10.3h-14.23v8.97h15.37v10.46Z"/>
    <path class="cls-1" d="M630.04,106.86l-2.34-8.9h-15.44l-2.4,8.9h-14.1l15.5-47.7h17.12l15.69,47.7h-14.04ZM625.04,87.43l-2.05-7.8c-.48-1.73-1.06-3.98-1.74-6.73-.68-2.75-1.13-4.72-1.35-5.91-.19,1.1-.58,2.92-1.15,5.46-.57,2.53-1.85,7.53-3.82,14.98h10.11Z"/>
    <path class="cls-1" d="M663.38,89.58v17.29h-12.84v-47.51h15.56c12.91,0,19.37,4.68,19.37,14.04,0,5.5-2.69,9.76-8.06,12.77l13.84,20.7h-14.56l-10.07-17.29h-3.25ZM663.38,79.93h2.4c4.48,0,6.73-1.98,6.73-5.95,0-3.27-2.2-4.91-6.6-4.91h-2.53v10.85Z"/>
    <path class="cls-1" d="M727.98,92.44c0,2.95-.75,5.56-2.24,7.85-1.49,2.29-3.65,4.06-6.47,5.33-2.82,1.27-6.12,1.9-9.91,1.9-3.16,0-5.82-.22-7.96-.67-2.14-.44-4.38-1.22-6.69-2.32v-11.44c2.45,1.26,4.99,2.24,7.64,2.94,2.64.7,5.07,1.06,7.28,1.06,1.91,0,3.3-.33,4.19-.99.89-.66,1.33-1.51,1.33-2.55,0-.65-.18-1.22-.54-1.71-.36-.49-.93-.98-1.72-1.48-.79-.5-2.9-1.52-6.32-3.05-3.1-1.41-5.42-2.77-6.97-4.09-1.55-1.32-2.7-2.84-3.44-4.55-.75-1.71-1.12-3.74-1.12-6.08,0-4.38,1.59-7.79,4.78-10.24,3.18-2.45,7.56-3.67,13.13-3.67,4.92,0,9.93,1.14,15.04,3.41l-3.93,9.91c-4.44-2.04-8.28-3.05-11.5-3.05-1.67,0-2.88.29-3.64.88-.76.58-1.14,1.31-1.14,2.18,0,.93.48,1.77,1.45,2.5.96.74,3.58,2.08,7.85,4.03,4.09,1.84,6.94,3.82,8.53,5.93,1.59,2.11,2.39,4.77,2.39,7.98Z"/>
  </g>
  <g>
    <path class="cls-1" d="M406.27,74.65c0-9.3-6.66-16.32-15.5-16.32-.37,0-.61-.01-.76-.03h-.51s-26.48,67.26-26.48,67.26h27.17l16.09-42.45c-.04-1.34-.03-2.7.05-4.05,0-.44-.06-3.19-.06-4.41Z"/>
    <path class="cls-1" d="M475.11,82.4c-.27,8.31-5.32,16.09-13.53,19.44-11.13,4.54-23.83-.8-28.37-11.92-4.54-11.13.8-23.83,11.92-28.37,11.13-4.54,23.83.8,28.37,11.92.87,2.14,1.38,4.34,1.55,6.52l11.9-11.79,12.03,12.37c-.13-5.39-1.22-10.84-3.38-16.13-9.52-23.33-36.16-34.53-59.49-25-7.55,3.08-13.83,7.96-18.55,13.93,0,0-.02,0-.03,0l6.57-17.33h-75.77s8.97,21.18,8.97,21.18h.39s32.39-.4,32.39-.4c0,0,.08.01.26.02.11,0,.25,0,.43,0,1.68,0,3.3.24,4.84.69.16.05.33.1.49.15.54.18,1.07.38,1.58.61,5.94,2.63,10.06,8.66,10.06,16.35h0c0,1.06.04,3.34.06,4.14-.06.35-.15.71-.3,1.09l.29-.77c-.38,6.57.67,13.33,3.32,19.82,9.52,23.33,36.16,34.53,59.49,25,17.31-7.07,27.94-23.55,28.38-41.12-.72-.97-12.02-12.5-12.02-12.5l-11.85,12.08Z"/>
  </g>
</svg>