<svg xmlns="http://www.w3.org/2000/svg" width="172.451" height="55" viewBox="0 0 172.451 55">
    <defs>
        <style>
            .cls-1{fill:#0e0c09}.cls-2{fill:none}
        </style>
    </defs>
    <g id="logo" transform="translate(-195.33 -225.173)">
        <path id="Path_1" d="M228.7 250.279c0-3.758-1.34-6.481-3.675-6.481-1.728 0-1.946.871-3.026.871-.432 0-.735-.327-.735-.925a.957.957 0 0 1 .95-1.035c.39 0 .736.217 1.3.217 4.409 0 6.57-4.683 6.57-9.692 0-2.668-.6-4.466-2.031-5.336-4.928 4.3-7.393 12.307-10.375 18.841-4.107 8.985-10.462 16.772-16.9 16.772-3.33 0-5.447-1.689-5.447-4.193 0-1.471.518-2.669 1.773-2.669.95 0 1.511.763 1.511 1.8 0 .98-.6 1.8-.6 2.341 0 1.254 1.21 2.07 2.9 2.07 6.4 0 9.9-7.134 14.05-16.772 3.026-7.025 7.133-14.158 12.494-18.569a14.865 14.865 0 0 0-7.653-1.688c-11.585 0-21.4 9.8-21.4 18.677 0 2.561 1.34 4.412 3.805 4.412 2.334 0 7.391-3.322 10.85-10.184 3.026-5.99 3.069-9.312 3.372-9.312.173 0 .3.055.3.272 0 4.466-4.366 20.095-14.438 20.095-2.6 0-4.411-2.125-4.411-5.12 0-9.257 10.073-19.494 22.091-19.494 2.767 0 6.01.489 8.127 1.851a11.4 11.4 0 0 1 3.113-1.851c.086 0 .173.162.173.434 0 .327-2.292 1.2-2.638 1.689a8.9 8.9 0 0 1 3.936 7.406c0 3.921-3.244 7.514-6.918 8.6v.109c3.113.871 5.534 3.594 5.534 8 0 7.078-5.49 12.09-10.506 12.09-3.112 0-4.884-2.07-4.884-5.283 0-5.01 4.063-8.222 4.582-8.222.129 0 .215.109.215.272 0 .436-.821.327-2.2 2.123a8.683 8.683 0 0 0-2.075 5.826c0 3.05 1.513 4.629 4.409 4.629 4.323 0 7.868-7.242 7.868-12.579" class="cls-1" data-name="Path 1" transform="translate(-.001 -.002)"/>
        <path id="Path_2" d="M303.456 285.25c-5.317 10.674-6.268 11.435-6.268 13.559 0 .654.389.926.735.926 2.248 0 8.041-8.44 10.721-14.268l2.767-.217c-1.167 2.559-6.528 11.163-6.528 13.559 0 .6.215.926.735.926.605 0 2.032-1.09 4.064-3.758 2.594-3.322 2.55-3.648 2.767-3.648.129 0 .215.108.215.272a40.216 40.216 0 0 1-2.55 3.648c-2.205 2.831-3.546 4.139-4.712 4.139-1.513 0-1.815-2.177-1.815-3.486a7.5 7.5 0 0 1 .3-2.068l-.086-.108c-1.254 1.688-3.934 5.663-5.922 5.663-1.384 0-1.988-1.307-1.988-2.94 0-4.139 2.809-7.189 4.451-10.238l-.086-.108a43.85 43.85 0 0 0-3.977 4.955c-.562.818-.562.927-.734.927-.131 0-.173-.108-.173-.327 0-.163.215-.489 2.2-3.1a44.184 44.184 0 0 1 3.459-4.085z" class="cls-1" data-name="Path 2" transform="translate(-61.955 -37.205)"/>
        <path id="Path_3" d="M340.179 300.388c4.367-8.876 6.657-12.252 6.657-13.723a.724.724 0 0 0-.735-.763c-.606 0-1.642.6-3.371 2.833-2.638 3.431-3.026 4.356-3.2 4.356-.131 0-.217-.109-.217-.272a33.541 33.541 0 0 1 2.552-3.758c1.857-2.5 3.2-3.811 4.409-3.811 1.08 0 1.686 1.252 1.686 2.559 0 2.178-1.859 5.881-2.723 7.352l.086.108c2.29-3.375 4.409-5.173 4.8-6.644.432-1.579 1.34-3.375 2.853-3.375.735 0 1.038.272 1.038.871 0 2.123-4.841 3.758-4.841 7.514 0 1.09.648 1.853 1.425 1.853a2.547 2.547 0 0 0 1.946-1.09c.952-1.2 1.3-2.068 1.471-2.068a.267.267 0 0 1 .26.272 13.351 13.351 0 0 1-1.08 1.741 3.285 3.285 0 0 1-2.638 1.689 2 2 0 0 1-1.9-2.125 5.3 5.3 0 0 1 .863-3.048l-.085-.108a75.858 75.858 0 0 0-6.53 9.31z" class="cls-1" data-name="Path 3" transform="translate(-89.168 -37.205)"/>
        <path id="Path_4" d="M393.464 238.906c-11.24 22.326-14.871 28.969-14.871 31.421a.739.739 0 0 0 .691.708c1.34 0 2.853-1.416 5.015-4.14 1.945-2.5 2.249-3.32 2.465-3.32.173 0 .215.164.215.272a19.851 19.851 0 0 1-1.642 2.451c-2.507 3.376-4.539 5.391-6.182 5.391-1.471 0-1.859-1.307-1.859-2.723 0-3.267 1.427-4.791 4.409-11l-.086-.108c-.734 1.088-1.425 2.178-2.851 4.138-1.644 2.287-1.817 2.668-2.033 2.668-.131 0-.173-.164-.173-.272 0-.436 4.755-5.99 8.862-14.43l5.188-10.672z" class="cls-1" data-name="Path 4" transform="translate(-112.235 -8.505)"/>
        <path id="Path_5" d="M413.213 257.212c.6 0 .994.6.994 1.417 0 .925-.563 2.068-1.513 2.068-.606 0-.994-.6-.994-1.416 0-.926.562-2.07 1.513-2.07m-3.027 10.674c-5.188 10.782-6.009 12.2-6.009 13.341 0 .925.432 1.144.821 1.144 1.384 0 3.372-2.178 4.8-4.03 1.123-1.416 2.55-3.594 2.636-3.594a.237.237 0 0 1 .26.272 25.319 25.319 0 0 1-2.636 3.813c-2.119 2.776-3.891 4.192-5.1 4.192-1.34 0-2.074-1.2-2.074-2.831 0-3.649 2.638-7.352 4.107-10.128l-.086-.109c-.517.653-1.6 2.068-3.674 5.01-.433.653-.475.708-.606.708s-.173-.163-.173-.327a12.233 12.233 0 0 1 1.3-1.96c1.125-1.634 3.069-4.14 3.717-5.283z" class="cls-1" data-name="Path 5" transform="translate(-128.266 -19.841)"/>
        <path id="Path_6" d="M428.233 300.388c.821-2.015 6.916-11.98 6.916-13.667 0-.546-.3-.818-.648-.818-1.21 0-2.377 1.144-4.582 4.193-2.032 2.778-1.988 3-2.161 3-.131 0-.217-.109-.217-.327a25.846 25.846 0 0 1 1.644-2.5c2.074-3.05 3.8-5.01 5.489-5.01 1.125 0 1.6 1.035 1.6 2.668 0 2.178-1.773 5.282-2.723 6.861l.085.11c1.686-2.015 6.659-9.639 8.864-9.639 1.081 0 1.556 1.415 1.556 2.559a9.33 9.33 0 0 1-1.6 4.683c-1.946 3.322-2.9 5.282-2.9 6.153 0 .544.26 1.09.692 1.09.994 0 2.809-1.961 4.582-4.357 2.205-2.94 2.032-3.1 2.29-3.1.131 0 .173.163.173.272a35.282 35.282 0 0 1-2.723 3.975c-1.9 2.4-3.415 3.866-4.409 3.866-1.3 0-1.9-1.524-1.9-3.486 0-4.356 4.67-8.875 4.67-10.345a.588.588 0 0 0-.605-.654c-2.075 0-9.9 11.6-11.2 14.158z" class="cls-1" data-name="Path 6" transform="translate(-143.806 -37.205)"/>
        <path id="Path_7" d="M472.667 298.047c0 .926.388 1.688 1.125 1.688 3.2 0 8.126-8.821 8.126-11.816 0-1.2-.258-2.015-1.3-2.015-3.459 0-7.955 8.005-7.955 12.143m-4.363 18.679c3.244 0 7.868-10.782 8.733-14.05-2.853 2.179-9.987 6.915-9.987 11.98 0 1.252.131 2.07 1.254 2.07m18.676-31.258l-7.262 15.138.086.11c2.421-1.254 5.143-4.465 7-7.243.692-1.035.734-1.2.908-1.2.086 0 .173.109.173.272 0 .272-.3.653-1.556 2.4-2.292 3.212-5.1 5.826-6.874 6.589-1.6 4.138-7.349 15.846-11.369 15.846-1.254 0-2.161-.925-2.161-2.778 0-4.356 4.236-7.623 11.456-12.8.648-1.8 1.427-3.866 3.027-7.787l-.087-.108c-1.211 2.178-4.151 6.48-6.528 6.48-2.032 0-2.682-1.907-2.682-4.738 0-1.36.3-2.015.3-2.831 0-.11-.044-.163-.173-.163-.259 0-.346.381-.475.381-.087 0-.173-.164-.173-.327s.173-.434 1.383-2.068c1.946-2.559 5.664-5.39 8.214-5.39 1.384 0 2.248.763 2.248 2.613a8.421 8.421 0 0 1-.173 1.906l.086.108a44.2 44.2 0 0 0 1.817-4.138z" class="cls-1" data-name="Path 7" transform="translate(-167.577 -37.206)"/>
        <path id="Path_8" d="M532.112 258.29l2.68-.219-2.809 5.447h5.057c.086 0 .215.109.215.326 0 .164-.042.327-.215.327h-5.361c-1.34 3-8.214 15.41-8.214 17.916a.718.718 0 0 0 .821.816c1.3 0 2.811-1.415 4.757-3.866 2.2-2.723 2.463-3.594 2.68-3.594.173 0 .215.109.215.327a24.1 24.1 0 0 1-2.334 3.322c-2.638 3.321-4.194 4.464-5.4 4.464-1.469-.054-2.031-1.416-2.031-2.668 0-3.1 1.469-5.773 4.021-10.347l-.086-.109c-.823 1.252-1.471 2.124-2.638 3.813a24.99 24.99 0 0 1-1.686 2.341.19.19 0 0 1-.216-.217c0-.219.173-.436 1.859-2.833a99.421 99.421 0 0 0 5.922-9.365h-1.557c-.173 0-.216-.163-.216-.327a.391.391 0 0 1 .173-.326h1.815z" class="cls-1" data-name="Path 8" transform="translate(-202.034 -20.373)"/>
        <path id="Path_9" d="M556.726 285.9c-3.026 0-7.047 7.243-7.047 11.818 0 1.524.519 2.015 1.123 2.015 3.417 0 7.437-6.427 7.437-11.382 0-1.307-.432-2.451-1.513-2.451m-.086 9.911a.839.839 0 0 0 .475.108 5.323 5.323 0 0 0 4.02-2.668c.562-.816.606-.926.735-.926.173 0 .217.11.217.272 0 .11-.086.327-1.08 1.634a5.463 5.463 0 0 1-4.28 2.341 1.482 1.482 0 0 1-.563-.053c-1.339 1.906-3.111 3.866-5.534 3.866-1.729 0-2.68-1.9-2.68-4.846a17.541 17.541 0 0 1 .217-2.831c0-.219-.043-.327-.131-.327-.346 0-.648.871-.777.871a.266.266 0 0 1-.26-.272 21.8 21.8 0 0 1 2.507-3.431c2.507-3 5.145-4.3 7.089-4.3 1.644 0 2.594 1.579 2.594 3.758a12.634 12.634 0 0 1-2.55 6.806" class="cls-1" data-name="Path 9" transform="translate(-217.786 -37.205)"/>
        <path id="Path_10" d="M585.842 300.388c.821-2.015 6.916-11.98 6.916-13.667 0-.546-.3-.818-.648-.818-1.209 0-2.377 1.144-4.582 4.193-2.032 2.778-1.988 3-2.161 3-.131 0-.217-.109-.217-.327a25.53 25.53 0 0 1 1.643-2.5c2.075-3.05 3.8-5.01 5.49-5.01 1.125 0 1.6 1.035 1.6 2.668 0 2.178-1.773 5.282-2.724 6.861l.086.11c1.686-2.015 6.658-9.639 8.864-9.639 1.08 0 1.555 1.415 1.555 2.559a9.325 9.325 0 0 1-1.6 4.683c-1.946 3.322-2.9 5.282-2.9 6.153 0 .544.259 1.09.692 1.09.994 0 2.809-1.961 4.582-4.357 2.206-2.94 2.032-3.1 2.29-3.1.131 0 .173.163.173.272a35.27 35.27 0 0 1-2.723 3.975c-1.9 2.4-3.414 3.866-4.409 3.866-1.3 0-1.9-1.524-1.9-3.486 0-4.356 4.67-8.875 4.67-10.345a.589.589 0 0 0-.606-.654c-2.074 0-9.9 11.6-11.2 14.158z" class="cls-1" data-name="Path 10" transform="translate(-241.412 -37.205)"/>
        <path id="Path_11" d="M634.11 260.487h.345c.4 0 .726-.135.726-.461 0-.286-.209-.478-.67-.478a1.734 1.734 0 0 0-.4.038zm-.021 1.762h-.727v-3.123a6.192 6.192 0 0 1 1.207-.115 1.786 1.786 0 0 1 1.091.249.861.861 0 0 1 .305.67.805.805 0 0 1-.65.747v.039c.307.1.478.345.574.766a2.061 2.061 0 0 0 .23.766h-.785a2.508 2.508 0 0 1-.25-.747c-.056-.345-.249-.5-.651-.5h-.345zm.48-4.137a2.51 2.51 0 0 0 .038 5.018 2.4 2.4 0 0 0 2.393-2.51 2.425 2.425 0 0 0-2.413-2.509zm.038-.632a3.152 3.152 0 1 1-3.256 3.141 3.177 3.177 0 0 1 3.237-3.141z" class="cls-1" data-name="Path 11" transform="translate(-270.024 -20.007)"/>
        <path id="Rectangle_13" d="M0 0h172.451v55H0z" class="cls-2" data-name="Rectangle 13" transform="translate(195.33 225.173)"/>
    </g>
</svg>
