<svg width="253" height="51" viewBox="0 0 253 51" fill="none" xmlns="http://www.w3.org/2000/svg">
<path d="M251.214 0.590962C251.544 0.590962 251.848 0.711968 252.068 0.931468C252.561 1.42675 252.516 2.2738 251.966 2.82255L245.847 8.93478C245.566 9.21338 245.188 9.37659 244.808 9.37659C244.478 9.37659 244.174 9.25559 243.954 9.03609C243.461 8.54362 243.506 7.69376 244.056 7.14501L250.175 1.03559C250.456 0.75418 250.834 0.593776 251.214 0.593776M251.214 0C250.696 0 250.163 0.20543 249.755 0.613475L243.636 6.72289C242.858 7.5024 242.81 8.72935 243.534 9.44976C243.878 9.79308 244.337 9.96474 244.808 9.96474C245.326 9.96474 245.859 9.75931 246.264 9.35127L252.383 3.23903C253.164 2.46234 253.209 1.23539 252.485 0.512167C252.144 0.168846 251.685 0 251.214 0Z" fill="#2b2f2c"/>
<path d="M246.266 13.1784C245.488 12.3989 244.257 12.3539 243.536 13.0743C242.815 13.7975 242.86 15.0217 243.638 15.8012L249.757 21.9134C250.534 22.6901 251.765 22.7351 252.487 22.0147C253.211 21.2943 253.163 20.0645 252.385 19.2878L246.266 13.1756V13.1784Z" fill="#2b2f2c"/>
<path d="M237.177 9.35131C237.958 10.128 239.186 10.173 239.907 9.45262C240.631 8.7294 240.586 7.50526 239.806 6.72576L233.687 0.616338C232.909 -0.160355 231.681 -0.205381 230.957 0.51503C230.235 1.23825 230.281 2.4652 231.061 3.2419L237.177 9.35131Z" fill="#2b2f2c"/>
<path d="M237.177 13.1756L231.06 19.285C230.28 20.0645 230.238 21.2914 230.959 22.0147C231.68 22.7351 232.911 22.6901 233.689 21.9134L239.805 15.8011C240.583 15.0216 240.631 13.7975 239.907 13.0743C239.185 12.351 237.957 12.3961 237.177 13.1756Z" fill="#2b2f2c"/>
<path d="M58.7199 24.9663C58.6973 24.9719 50.068 24.9663 50.068 24.9663C47.1606 24.9663 44.7969 27.5103 44.7969 30.6367V42.4672C44.7969 45.5965 47.1578 48.1433 50.0652 48.1433H58.7227C61.6273 48.1433 63.991 45.5965 63.991 42.47V30.6395C63.991 27.5131 61.6273 24.9663 58.7227 24.9663H58.7199ZM60.923 42.2111C60.923 43.7533 59.551 45.0112 57.8606 45.0112H50.9977C49.2848 45.0112 47.8931 43.7645 47.8931 42.2336V30.8028C47.8931 29.2719 49.2876 28.0252 51.0005 28.0252H57.824C59.5341 28.0252 60.923 29.2634 60.923 30.7915V42.2111Z" fill="#2b2f2c"/>
<path d="M73.6032 28.0282H80.4323C82.1959 28.0282 82.9706 28.8921 83.9539 29.9868L84.1539 30.2091L86.45 28.4644L86.2979 28.2167C85.4104 26.7703 84.1257 25.245 81.3423 24.9692C81.3113 24.9692 72.6819 24.9692 72.6819 24.9692C69.7773 24.9692 67.4136 27.5132 67.4136 30.6425V32.1677C67.4136 35.3955 70.2225 38.0211 73.6793 38.0211H80.7506C82.21 38.0211 83.4017 39.5801 83.4017 41.5443C83.4017 43.5086 82.21 45.1041 80.7478 45.1041H73.1271C71.3635 45.1041 70.5859 44.2233 69.6027 43.1286L69.4026 42.9063L67.1094 44.6511L67.2615 44.8987C68.1489 46.348 69.4336 47.876 72.2171 48.1462C72.2481 48.1462 80.8774 48.1462 80.8774 48.1462C83.875 48.1462 86.4134 45.546 86.4134 42.473V40.6466C86.4134 37.4188 83.52 34.7595 80.097 34.7595C80.0942 34.7595 73.6004 34.7595 73.6004 34.7595C71.7917 34.7595 70.3154 33.2511 70.3154 31.3966C70.3154 29.5422 71.7917 28.0282 73.6032 28.0282Z" fill="#2b2f2c"/>
<path d="M95.9811 28.0284H102.81C104.574 28.0284 105.351 28.8923 106.335 29.987L106.535 30.2093L108.828 28.4674L108.676 28.2198C107.788 26.7733 106.504 25.2453 103.72 24.9751C103.847 24.9807 103.743 24.9835 95.0599 24.9751C92.1524 24.9751 89.7916 27.519 89.7916 30.6455V32.1708C89.7916 35.3985 92.6004 38.0241 96.0572 38.0241H103.129C104.591 38.0241 105.78 39.5831 105.78 41.5445C105.78 43.506 104.588 45.1072 103.126 45.1072H95.505C93.7414 45.1072 92.9638 44.2264 91.9806 43.1317L91.7806 42.9094L89.4873 44.6541L89.6394 44.9046C90.5269 46.351 91.8087 47.8791 94.595 48.1521C94.626 48.1521 103.255 48.1521 103.255 48.1521C106.253 48.1521 108.791 45.5518 108.791 42.476V40.6497C108.791 37.4219 105.898 34.7625 102.478 34.7625H95.9811C94.1724 34.7625 92.6962 33.2542 92.6962 31.3997C92.6962 29.5452 94.1724 28.0312 95.9839 28.0312L95.9811 28.0284Z" fill="#2b2f2c"/>
<path d="M175.454 15.8882H172.343V24.9552L167.76 24.9665V28.4053H172.343V45.3293C172.343 48.4558 174.733 50.9998 177.637 50.9998H182.781V47.9408H178.567C176.854 47.9408 175.451 46.6942 175.451 45.1633V28.4053H182.818V24.9665H175.451V15.8882H175.454Z" fill="#2b2f2c"/>
<path d="M203.356 43.123C202.373 44.2177 201.595 45.076 199.832 45.076H191.997C190.287 45.076 188.904 43.835 188.904 42.3069V37.7593C188.904 37.4976 189.115 37.2838 189.377 37.2838H205.261V30.6425C205.261 27.516 202.897 24.9692 199.992 24.9692H191.056C188.151 24.9692 185.779 27.5132 185.779 30.6397V42.4758C185.779 45.6022 188.143 48.1434 191.05 48.1434H200.705C203.497 47.8704 204.793 46.3621 205.697 44.8931L205.85 44.6426L203.554 42.8979L203.353 43.1202L203.356 43.123ZM202.046 33.5579C202.046 33.8196 201.835 34.0363 201.573 34.0363H189.461C189.202 34.0363 188.901 33.8224 188.901 33.5635V30.7972C188.901 29.2636 190.388 28.0169 192.101 28.0169C192.11 28.0169 198.922 28.0169 198.922 28.0169C200.646 28.0169 202.043 29.2636 202.043 30.7972V33.5579H202.046Z" fill="#2b2f2c"/>
<path d="M13.0093 28.0283C14.7729 28.0283 15.5477 28.8978 16.5309 29.9953L16.7309 30.2177L19.027 28.4729L18.8749 28.2253C17.9875 26.7788 16.7 25.2451 13.9137 24.9722H5.27026C2.36565 24.9722 0.00195312 27.5189 0.00195312 30.6454V42.4759C0.00195312 45.6052 2.36283 48.1491 5.27026 48.1491H19.1256L19.1313 45.0198H6.19715C4.48424 45.0198 3.09251 43.7732 3.09251 42.2423V30.8114C3.09251 29.2806 4.48706 28.0339 6.19996 28.0339H13.0234H13.0093V28.0283Z" fill="#2b2f2c"/>
<path d="M36.3585 24.9663H27.7291C24.8217 24.9663 22.458 27.5103 22.458 30.6367V48.1433H25.5486V30.7999C25.5486 29.2691 26.9431 28.0252 28.656 28.0252H35.4795C37.2431 28.0252 38.0178 28.8835 39.0011 29.9782L39.2011 30.2005L41.4972 28.4558L41.345 28.2082C40.4576 26.7617 39.1729 25.2449 36.3894 24.9719H36.3585V24.9663Z" fill="#2b2f2c"/>
<path d="M223.448 24.9663H214.822C211.914 24.9663 209.551 27.5103 209.551 30.6367V48.1433H212.641V30.7999C212.641 29.2691 214.036 28.0252 215.752 28.0252H222.575C224.339 28.0252 225.113 28.8807 226.097 29.9782L226.294 30.2005L228.59 28.4558L228.438 28.2053C227.55 26.7589 226.266 25.2421 223.479 24.9691H223.448V24.9663Z" fill="#2b2f2c"/>
<path d="M135.825 45.0845C137.538 45.0845 138.843 43.8322 138.843 42.3013V42.2225L138.84 24.9692H141.964V42.4645C141.964 45.591 139.575 48.1462 136.668 48.1462H117.285C114.377 48.1462 111.988 45.5966 111.988 42.4701V24.9692H115.101V42.3069C115.101 43.8406 116.502 45.0845 118.214 45.0845H124.998C125.258 45.0845 125.466 44.8734 125.466 44.6145V24.9692H128.543C128.543 24.9692 128.543 44.6061 128.543 44.6117C128.543 44.8734 128.824 45.0845 129.084 45.0845H135.828H135.825Z" fill="#2b2f2c"/>
<path d="M159.744 24.9667H145.878V28.0425H158.8C160.508 28.0425 161.899 29.2863 161.899 30.8116V33.2064C161.899 33.4681 161.694 33.6707 161.432 33.6707C161.435 33.6623 151.137 33.6707 151.137 33.6707C148.233 33.6707 145.869 36.2118 145.869 39.3383V42.4873C145.869 45.6166 148.236 48.1408 151.14 48.1408H165.013V30.6399C165.013 27.5106 162.652 24.9639 159.744 24.9639V24.9667ZM148.988 39.6929C148.988 38.1648 150.382 36.921 152.098 36.921H161.432C161.694 36.9238 161.902 37.1377 161.902 37.3994V44.6148C161.902 44.8736 161.694 45.0932 161.432 45.0932H152.109C150.388 45.0903 148.988 43.8437 148.988 42.3128V39.6901V39.6929Z" fill="#2b2f2c"/>
</svg>
