<?xml version="1.0" encoding="UTF-8" standalone="no"?>
<!-- Created with Inkscape (http://www.inkscape.org/) -->
<svg xmlns:svg="http://www.w3.org/2000/svg" xmlns="http://www.w3.org/2000/svg" version="1.0" width="800" height="189" viewBox="0 0 115.457 27.2917" id="svg2" xml:space="preserve">
 <defs id="defs4">
  <style type="text/css" id="style6"/>
 </defs>
 <g style="fill:#004791;fill-opacity:1;stroke:none" id="Ebene_x0020_1">
  
  <path d="M 79.4447,4.38715 L 86.66783,22.80515 L 83.54907,22.80515 L 82.32862,19.70578 L 76.02998,19.70578 L 74.6949,22.80515 L 69.9285,22.80515 L 65.87904,16.68039 L 65.87904,22.80515 L 62.83659,22.80515 L 62.83659,6.03415 L 68.44,6.0403546 C 70.32807,6.0403546 73.32662,7.4587346 73.29932,11.199045 C 73.27202,15.253625 70.20755,16.274905 69.1678,16.489895 C 70.1804,17.925185 71.23084,19.454165 72.25957,20.906045 L 79.34077,4.3858446 L 79.444698,4.3870856 L 79.4447,4.38715 z M 65.879,13.55947 L 68.37435,13.56009 C 69.92846,13.56009 70.24582,12.3159 70.24582,11.2 C 70.24582,10.0025 69.758756,9.0806505 68.40165,9.0806505 L 65.879,9.08003 L 65.879,13.55947 L 65.879,13.55947 z M 77.327,16.67761 L 81.14627,16.67761 L 79.31885,12.03064 L 77.32701,16.67761 L 77.327,16.67761 z " style="fill:#004791;fill-opacity:1;stroke:none" id="path10"/>
  <path d="M 16.307,22.7045 L 11.97833,27.29175 L 8.31201,13.78235 L -4e-005,4.57203 L 12.00576,5.82645 L 20.96355,11.91848 L 24.76126,17.83088 L 11.00446,8.44248 L 6.56085,7.869016 L 19.27835,21.701016 L 20.38914,18.296686 C 21.89408,19.802086 24.15381,20.519036 26.26602,19.802246 C 28.09391,19.228627 29.70804,17.365526 30.06915,15.502276 C 30.496029,13.316066 29.746354,11.273346 28.06086,9.840236 C 26.80783,8.729296 25.12234,8.191506 23.39869,8.621646 C 22.21686,8.944132 21.10577,9.517441 20.21385,10.485366 L 17.56013,8.729296 C 19.89106,5.862446 23.54637,4.679376 27.09232,5.682976 C 30.2117,6.650435 33.00782,9.840236 33.29231,13.101086 C 33.647991,17.186376 31.85857,20.698046 28.09375,22.382456 C 26.3428,23.206432 23.94036,23.600426 22.00327,22.84858 L 20.50392,27.29172 L 16.30695,22.70447 L 16.307,22.7045 z M 12.9689,22.408694 L 14.41365,20.543114 L 11.64467,17.472744 L 12.9689,22.408694 L 12.9689,22.408694 z " style="fill:#004791;fill-opacity:1;stroke:none" id="path12"/>
  <path d="M 9.77882,10.048 C 9.77882,9.578929 10.156062,9.198895 10.621255,9.198895 C 11.086603,9.198895 11.464,9.579239 11.464,10.048155 C 11.464,10.517226 11.086448,10.89757 10.621255,10.89757 C 10.156217,10.89726 9.778665,10.517226 9.77882,10.048 z " style="fill:#004791;fill-opacity:1;stroke:none" id="path14"/>
  <polygon points="90.3067,24.8834 80.2708,0 83.4561,0.00325744 90.3233,17.035 94.8216,6.03417 98.0499,6.03417 90.3067,24.8834 " style="fill:#004791;fill-opacity:1;stroke:none" id="polygon16"/>
  <polygon points="102.543,22.8052 99.5324,22.8052 99.5324,6.03386 102.543,6.03386 102.543,22.8052 " style="fill:#004791;fill-opacity:1;stroke:none" id="polygon18"/>
  <polygon points="115.457,9.08003 111.265,9.08003 111.265,22.8052 108.272,22.8052 108.272,9.08065 104.135,9.08003 104.135,6.03417 115.457,6.03417 115.457,9.08003 " style="fill:#004791;fill-opacity:1;stroke:none" id="polygon20"/>
  <path d="M 51.98,14.0307 C 51.98,16.67419 51.624164,19.7202 54.89649,19.7202 C 58.08692,19.71989 57.77482,16.71157 57.77482,14.02589 L 57.774975,6.03416 L 60.779265,6.03416 L 60.779265,16.68956 C 60.779265,18.92773 59.202975,22.80532 54.896495,22.80532 C 50.601025,22.805165 48.975565,18.92788 48.975565,16.68972 L 48.97572,6.03422 L 51.98001,6.0335995 C 51.98001,6.0335995 51.979855,13.60125 51.98001,14.03076 L 51.98,14.0307 z " style="fill:#004791;fill-opacity:1;stroke:none" id="path22"/>
  <path d="M 40.0286,19.7523 C 39.426905,19.865535 38.7371,19.861347 38.2063,19.862432 L 38.206455,9.020932 C 38.742691,9.020932 39.421165,9.0226383 40.034035,9.134942 C 43.525385,9.772779 44.422735,12.803432 44.428165,14.571452 C 44.433749,16.323642 43.519806,19.112322 40.028605,19.752322 L 40.0286,19.7523 z M 38.07522,6.0341 C 36.81661,6.0341 35.73297,6.0342551 35.07636,6.0342551 L 35.07636,22.805055 C 36.050489,22.805055 36.76712,22.80521 37.85619,22.80521 C 42.66075,22.805055 47.3285,20.24487 47.3285,14.40878 C 47.328655,9.4323502 44.2586,6.0342202 38.07521,6.0340702 L 38.07522,6.0341 z " style="fill:#004791;fill-opacity:1;stroke:none" id="path24"/>
 </g>
</svg>