<svg xmlns="http://www.w3.org/2000/svg" height="145.12pt" width="240pt" version="1.1" xmlns:xlink="http://www.w3.org/1999/xlink" viewBox="0 0 240 145.1156">
<defs>
<symbol id="b" overflow="visible"></symbol>
<symbol id="a" overflow="visible"></symbol>
<clipPath id="o">
<path d="m352.61 122.9h6.3906v7.1016h-6.3906z"/>
</clipPath>
<clipPath id="n">
<path d="m382 123h5.2305v7h-5.23z"/>
</clipPath>
<clipPath id="m">
<path d="m366 122.9h8v7.1016h-8z"/>
</clipPath>
<clipPath id="l">
<path d="m371 142h4v1.832h-4z"/>
</clipPath>
<clipPath id="k">
<path d="m375 142h3v1.832h-3z"/>
</clipPath>
<clipPath id="j">
<path d="m378 142h2v1.832h-2z"/>
</clipPath>
<clipPath id="i">
<path d="m381 142h2v1.832h-2z"/>
</clipPath>
<clipPath id="h">
<path d="m384 142h2v1.832h-2z"/>
</clipPath>
<clipPath id="g">
<path d="m354 142h2v1.832h-2z"/>
</clipPath>
<clipPath id="f">
<path d="m357 142h2v1.832h-2z"/>
</clipPath>
<clipPath id="e">
<path d="m360 142h2v1.832h-2z"/>
</clipPath>
<clipPath id="d">
<path d="m363 142h3v1.832h-3z"/>
</clipPath>
<clipPath id="c">
<path d="m366 142h3v1.832h-3z"/>
</clipPath>
</defs>
<g transform="translate(2.4809 168.55)">
<g style="fill:#142863">
<use xlink:href="#b" height="100%" width="100%" y="441.4313" x="729.13568"/>
</g>
<g style="fill:#142863">
<use xlink:href="#b" height="100%" width="100%" y="460.43729" x="648.69171"/>
</g>
<path style="fill:#004a94" d="m230.78-105.05c-3.8994 0.64989-6.0927 0.86652-8.2049 0.86652-5.145 0-12.456-1.4623-20.147-4.0889l-11.536-3.8994c-6.0657-2.058-15.164-3.764-20.147-3.764-4.9284 0-14.027 1.706-20.12 3.764l-11.509 3.8994c-7.6904 2.5996-15.029 4.0889-20.174 4.0889-5.1179 0-12.429-1.4893-20.12-4.0889l-11.563-3.8994c-6.0657-2.058-15.137-3.764-20.093-3.764-4.9825 0-14.081 1.706-20.147 3.764l-11.536 3.8994c-7.6904 2.6266-15.002 4.0889-20.147 4.0889-2.1122 0-4.3055-0.21663-8.2049-0.86652l0.48742 0.81236c1.1102 1.8414 1.706 2.6537 3.1682 4.3597 2.0309 0.27077 2.8433 0.35202 4.468 0.35202 5.1179 0 13.512-1.6247 20.228-3.8994l11.536-3.8723c7.8258-2.6537 14.975-4.116 20.147-4.116 4.3597 0 11.969 1.4081 17.249 3.1953l14.406 4.793c6.7968 2.3017 15.11 3.8994 20.147 3.8994 5.0367 0 13.377-1.5977 20.147-3.8994l14.379-4.793c5.3075-1.7872 12.917-3.1953 17.276-3.1953 5.1721 0 12.321 1.4622 20.12 4.116l11.536 3.8723c6.7156 2.2746 15.11 3.8994 20.282 3.8994 1.5977 0 2.41-0.08124 4.4409-0.35202 1.6247-1.9226 2.0851-2.5725 3.1682-4.3597l0.46037-0.81236"/>
<path style="fill:#004a94" d="m213.61-88.826-16.789-5.145c-7.5008-2.3288-10.425-3.1141-14.46-4.0347-4.2514-0.94776-8.5028-1.4623-11.617-1.4623-4.8742 0-14.135 1.733-20.12 3.7369l-11.509 3.8994c-7.7987 2.6266-14.975 4.0889-20.228 4.0889-5.2262 0-12.348-1.4352-20.174-4.0889l-11.531-3.899c-5.9844-2.0038-15.3-3.7369-20.147-3.7369-3.0599 0-7.3925 0.51451-11.59 1.4623-3.9806 0.8936-7.1488 1.7601-14.487 4.0347l-16.762 5.145c1.7872 1.6247 2.2746 2.0038 4.2785 3.3578l9.3151-2.8433 7.6904-2.2475 3.087-0.92068c8.1778-2.4371 13.756-3.4661 18.495-3.4661 4.2785 0 12.05 1.4352 17.249 3.1682l14.406 4.8471c6.7156 2.2475 15.083 3.8452 20.201 3.8452 5.0908 0 13.512-1.5976 20.201-3.8452l14.379-4.8471c5.1721-1.733 12.998-3.1682 17.276-3.1682 4.7388 0 10.263 1.029 18.468 3.4661l3.0599 0.92068 7.7175 2.2475 9.3151 2.8433c2.0038-1.3539 2.4913-1.733 4.2785-3.3578"/>
<path style="fill:#004a94" d="m194.84-77.913-1.0561-0.40616-2.8974-0.92068c-8.3403-2.5454-15.029-3.791-20.147-3.791-4.2514 0-11.509 1.2185-17.249 2.9245l-2.8704 0.86652c-1.4623 0.46037-2.41 0.78528-2.8974 0.92068l-5.7407 2.0038-2.8704 0.97484c-8.7465 2.8162-14.975 4.0889-20.174 4.0889-4.4409 0-11.048-1.2186-17.249-3.1953l-2.8704-0.8936-2.8974-0.97484-2.8704-1.0019-2.8433-1.0019-2.9516-0.92068c-8.3132-2.5454-15.029-3.791-20.093-3.791-4.3055 0-11.536 1.2185-17.276 2.9245l-2.8704 0.86652c-2.058 0.64989-2.4642 0.78528-3.9264 1.3269l5.7678 3.0058 1.2998-0.37912c6.7697-2.1121 12.592-3.1953 17.033-3.1953 3.7098 0 9.5588 0.94776 14.352 2.3288l2.8704 0.86652 2.8433 0.89361 2.9516 0.97484 2.8433 1.0019 2.8704 0.97484 2.8974 0.94776c8.6382 2.6537 15.002 3.8723 20.147 3.8723 4.4139 0 11.156-1.1915 17.249-3.0057l2.8974-0.86652 2.8704-0.94776 2.8704-0.97484 2.8704-1.0019 2.8974-0.97484 2.8704-0.89361c7.3654-2.1934 12.781-3.1953 17.276-3.1953 4.4409 0 10.236 1.0832 16.978 3.1953l1.2998 0.37912 5.7949-3.0058"/>
<g transform="matrix(6.9322 0 0 6.9322 -2446.8 -1020.5)" clip-path="url(#o)">
<path style="fill:#004a94" d="m357.34 126.16v1.8164c-0.41406 0.17578-0.82813 0.26171-1.2422 0.26171-1.0664 0-1.8164-0.82421-1.8164-1.9961 0-1.2578 0.89453-2.1367 2.1797-2.1367 0.71875 0 1.4336 0.20313 2.2969 0.64063v-1.207c-1.1016-0.44922-1.6484-0.57813-2.4648-0.57813-2.25 0-3.6875 1.2734-3.6875 3.2656 0 1.8945 1.3945 3.1523 3.4922 3.1523 0.9375 0 2.043-0.29297 2.8516-0.76953v-2.4492h-1.6094"/>
</g>
<path style="fill:#004a94" d="m50.729-166.89v42.053h10.994v-34.146h4.7388c6.2011 0 8.9631 1.9768 8.9631 6.4177 0 4.4951-3.087 7.0676-8.5569 7.0676l-2.41-0.0813h-1.2185l15.245 20.742h14.027l-14-16.924c5.1991-2.3288 7.9612-6.4989 7.9612-11.942 0-8.936-5.7678-13.187-17.818-13.187h-17.926"/>
<path style="fill:#004a94" d="m152.9-166.89v42.053h10.967v-18.007h19.388v18.007h10.994v-42.053h-10.994v15.543h-19.388v-15.543z"/>
<g transform="matrix(6.9322 0 0 6.9322 -2446.8 -1020.5)" clip-path="url(#n)">
<path style="fill:#004a94" d="m382.68 123.14v6.0664h4.5547v-1.1875h-2.9727v-1.4453h2.1875v-1.1406h-2.1875v-1.1055h2.6289v-1.1875z"/>
</g>
<g transform="matrix(6.9322 0 0 6.9322 -2446.8 -1020.5)" clip-path="url(#m)">
<path style="fill-rule:evenodd;fill:#004a94" d="m368.09 126.17c0.004-1.25 0.85156-2.125 2.0703-2.125 1.2148 0 2.0586 0.875 2.0586 2.125s-0.84766 2.125-2.0586 2.125c-1.2148 0-2.0703-0.875-2.0703-2.125m-1.6641 0c0 1.8867 1.5781 3.2695 3.7344 3.2695 2.1524 0 3.7344-1.3828 3.7305-3.2695 0-1.8906-1.5781-3.2695-3.7305-3.2695-2.1562 0-3.7344 1.3789-3.7344 3.2695"/>
</g>
<g transform="matrix(6.9322 0 0 6.9322 -2446.8 -1020.5)" clip-path="url(#l)">
<path style="fill:#004a94" d="m374.27 142.27h-0.41797l-0.28125 1.2383-0.32031-1.2383h-0.54297l-0.33594 1.2383-0.26953-1.2383h-0.46875l0.44531 1.5234h0.54688l0.33984-1.2266 0.3125 1.2266h0.54688z"/>
</g>
<g transform="matrix(6.9322 0 0 6.9322 -2446.8 -1020.5)" clip-path="url(#k)">
<path style="fill-rule:evenodd;fill:#004a94" d="m376.62 143.21h-0.61328l0.3125-0.64453 0.30078 0.64453m0.77734 0.58203-0.79297-1.5234h-0.52734l-0.8086 1.5234h0.45704l0.14843-0.30078h0.88282l0.14453 0.30078z"/>
</g>
<g transform="matrix(6.9322 0 0 6.9322 -2446.8 -1020.5)" clip-path="url(#j)">
<path style="fill:#004a94" d="m379.9 142.58v-0.3125h-1.6133v0.3125h0.58594v1.2109h0.44141v-1.2109z"/>
</g>
<g transform="matrix(6.9322 0 0 6.9322 -2446.8 -1020.5)" clip-path="url(#i)">
<path style="fill:#004a94" d="m382.57 143.79v-0.3125h-0.87891v-0.30469h0.81641v-0.30469h-0.81641v-0.28906h0.86328v-0.3125h-1.3086v1.5234z"/>
</g>
<g transform="matrix(6.9322 0 0 6.9322 -2446.8 -1020.5)" clip-path="url(#h)">
<path style="fill-rule:evenodd;fill:#004a94" d="m385.08 142.74c0 0.11328-0.0625 0.1875-0.26562 0.1875h-0.35547v-0.35937h0.35547c0.17187 0 0.26562 0.0469 0.26562 0.17187m0.5 1.0547c-0.0508-0.11719-0.0703-0.34375-0.10156-0.49219-0.0391-0.18359-0.13281-0.21875-0.35156-0.25 0.21093-0.0312 0.39453-0.15625 0.39453-0.375 0-0.26953-0.20703-0.40625-0.57813-0.40625h-0.92578v1.5234h0.44141v-0.58203h0.29297c0.19921 0 0.25 0.0352 0.27343 0.10547 0.0312 0.0742 0.0352 0.32812 0.0859 0.47656z"/>
</g>
<g transform="matrix(6.9322 0 0 6.9322 -2446.8 -1020.5)" clip-path="url(#g)">
<path style="fill:#004a94" d="m355.59 143.79v-0.3125h-0.88282v-0.30469h0.82032v-0.30469h-0.82032v-0.28906h0.86719v-0.3125h-1.3086v1.5234z"/>
</g>
<g transform="matrix(6.9322 0 0 6.9322 -2446.8 -1020.5)" clip-path="url(#f)">
<path style="fill:#004a94" d="m358.92 143.79v-1.5234h-0.37891v1.1562l-0.69922-1.1562h-0.59375v1.5234h0.37891v-1.1562l0.69922 1.1562z"/>
</g>
<g transform="matrix(6.9322 0 0 6.9322 -2446.8 -1020.5)" clip-path="url(#e)">
<path style="fill:#004a94" d="m361.81 143.22v-0.94922h-0.44531v0.95313c0 0.23437-0.0899 0.30859-0.23047 0.30859-0.17578 0-0.22266-0.0977-0.23047-0.26172h-0.44141v0.0352c0 0.35547 0.21485 0.52734 0.67188 0.52734 0.4375 0 0.67578-0.16016 0.67578-0.61328"/>
</g>
<g transform="matrix(6.9322 0 0 6.9322 -2446.8 -1020.5)" clip-path="url(#d)">
<path style="fill-rule:evenodd;fill:#004a94" d="m364.79 143.03c0 0.26953-0.10547 0.5-0.45313 0.5-0.35156 0-0.44531-0.23047-0.44531-0.5 0-0.26563 0.11719-0.5 0.44531-0.5 0.35547 0 0.45313 0.23437 0.45313 0.5m0.45312 0c0-0.47266-0.27344-0.80078-0.90625-0.80078-0.62109 0-0.90234 0.34375-0.90234 0.80078 0 0.47656 0.25781 0.80078 0.90234 0.80078 0.62891 0 0.90625-0.33984 0.90625-0.80078"/>
</g>
<g transform="matrix(6.9322 0 0 6.9322 -2446.8 -1020.5)" clip-path="url(#c)">
<path style="fill:#004a94" d="m368.37 142.27h-0.48047l-0.39844 0.67188-0.39844-0.67188h-0.53906l0.6875 0.98047v0.54297h0.44141v-0.54297z"/>
</g>
<path style="fill-rule:evenodd;fill:#004a94" d="m229.91-35.914h0.78529c0.37912 0 0.62279-0.05407 0.73112-0.16249 0.1625-0.10828 0.24374-0.27077 0.24374-0.46037 0-0.10835-0.027-0.21663-0.10835-0.29788-0.0812-0.10835-0.16249-0.18953-0.27077-0.21663-0.13539-0.05407-0.32491-0.08125-0.64989-0.08125h-0.73113v1.2185m-0.6499 2.2746v-4.0347h1.381c0.4874 0 0.78528 0.02704 1.0019 0.10835 0.21663 0.08125 0.40616 0.18953 0.51451 0.37912 0.13539 0.18953 0.18953 0.40616 0.18953 0.59575 0 0.29788-0.10835 0.56865-0.32492 0.78528-0.18952 0.21663-0.4874 0.32491-0.81237 0.35202 0.10835 0.08125 0.21664 0.16249 0.32499 0.21663 0.18952 0.16249 0.37912 0.43326 0.59575 0.81237l0.5145 0.78528h-0.81236l-0.37913-0.64989c-0.24373-0.4874-0.4874-0.78529-0.67699-0.94776-0.0813-0.05407-0.24374-0.10835-0.51451-0.10835h-0.35202v1.706zm1.6518-5.2262c-0.56865 0-1.0561 0.16249-1.5706 0.43326-0.4874 0.27077-0.86652 0.64989-1.1644 1.1373-0.27077 0.54161-0.40616 1.029-0.40616 1.5706 0 0.54161 0.13539 1.0832 0.40616 1.5706s0.677 0.86652 1.1644 1.1644c0.51451 0.27077 1.0019 0.37912 1.5706 0.37912 0.4874 0 1.0561-0.10828 1.5164-0.37912 0.51451-0.29788 0.89361-0.677 1.1644-1.1644 0.27077-0.4874 0.43326-1.029 0.43326-1.5706 0-0.54161-0.16249-1.029-0.43326-1.5706-0.27077-0.4874-0.677-0.86652-1.1915-1.1373-0.46037-0.27077-1.0019-0.43326-1.4893-0.43326m0-0.59575c0.59575 0 1.2186 0.16249 1.8143 0.4874 0.59575 0.32491 1.0561 0.78528 1.4081 1.381 0.32492 0.59575 0.48741 1.2186 0.48741 1.8684 0 0.677-0.16249 1.2727-0.48741 1.8684-0.32498 0.59575-0.78529 1.0561-1.381 1.381-0.59575 0.35202-1.2456 0.51451-1.8414 0.51451-0.677 0-1.2998-0.16249-1.8955-0.51451-0.59575-0.32491-1.0561-0.78529-1.4081-1.381-0.32491-0.59575-0.46036-1.1915-0.46036-1.8684 0-0.64989 0.13538-1.2727 0.4874-1.8684 0.35202-0.59575 0.81236-1.0561 1.4081-1.381 0.59576-0.32491 1.2186-0.4874 1.8684-0.4874"/>
<g style="fill:#000000">
<use xlink:href="#a" height="100%" width="100%" y="238.5004" x="158.3315"/>
</g>
<g style="fill:#000000">
<use xlink:href="#a" height="100%" width="100%" y="265.5004" x="124.4905"/>
</g>
<g style="fill:#000000">
<use xlink:href="#a" height="100%" width="100%" y="292.5004" x="183.7515"/>
</g>
<g style="fill:#000000">
<use xlink:href="#a" height="100%" width="100%" y="319.5004" x="167.9225"/>
</g>
<g style="fill:#000000">
<use xlink:href="#a" height="100%" width="100%" y="346.5004" x="202.2115"/>
</g>
<g style="fill:#000000">
<use xlink:href="#a" height="100%" width="100%" y="373.5004" x="192.5025"/>
</g>
<g style="fill:#000000">
<use xlink:href="#a" height="100%" width="100%" y="400.5004" x="189.81149"/>
</g>
<g style="fill:#000000">
<use xlink:href="#a" height="100%" width="100%" y="346.5004" x="398.7215"/>
</g>
<g style="fill:#000000">
<use xlink:href="#a" height="100%" width="100%" y="373.5004" x="276.1925"/>
</g>
<g style="fill:#000000">
<use xlink:href="#a" height="100%" width="100%" y="454.5004" x="286.4325"/>
</g>
</g>
</svg>
