<?xml version="1.0" encoding="UTF-8" standalone="no"?>
<!-- Created with Inkscape (http://www.inkscape.org/) -->

<svg
   width="264.58328mm"
   height="138.75189mm"
   viewBox="0 0 264.58328 138.75189"
   version="1.1"
   id="svg1"
   inkscape:version="1.3.2 (091e20e, 2023-11-25, custom)"
   sodipodi:docname="Ideal Standard 2017.svg"
   xmlns:inkscape="http://www.inkscape.org/namespaces/inkscape"
   xmlns:sodipodi="http://sodipodi.sourceforge.net/DTD/sodipodi-0.dtd"
   xmlns="http://www.w3.org/2000/svg"
   xmlns:svg="http://www.w3.org/2000/svg">
  <sodipodi:namedview
     id="namedview1"
     pagecolor="#ffffff"
     bordercolor="#000000"
     borderopacity="0.25"
     inkscape:showpageshadow="2"
     inkscape:pageopacity="0.0"
     inkscape:pagecheckerboard="0"
     inkscape:deskcolor="#d1d1d1"
     inkscape:document-units="mm"
     inkscape:zoom="0.75455247"
     inkscape:cx="306.14173"
     inkscape:cy="261.74455"
     inkscape:window-width="1920"
     inkscape:window-height="1094"
     inkscape:window-x="-11"
     inkscape:window-y="-11"
     inkscape:window-maximized="1"
     inkscape:current-layer="layer1" />
  <defs
     id="defs1" />
  <g
     inkscape:label="Layer 1"
     inkscape:groupmode="layer"
     id="layer1"
     transform="translate(-139.17083,-107.42044)">
    <path
       inkscape:connector-curvature="0"
       id="path7792"
       style="fill:#2c5574;fill-opacity:1;fill-rule:nonzero;stroke:none;stroke-width:4.40136"
       d="m 163.78107,228.79659 c -0.96441,-0.93323 -1.85298,-1.56253 -2.66281,-1.89253 -0.80971,-0.32563 -1.71212,-0.48907 -2.70686,-0.48907 -1.83539,0 -3.25257,0.69493 -4.25167,2.07743 -0.99436,1.38636 -1.49204,3.34065 -1.49204,5.86261 0,5.63367 1.97612,8.45057 5.92861,8.45057 1.40396,0 2.61877,-0.30816 3.64433,-0.93323 1.02555,-0.62007 1.54044,-1.33795 1.54044,-2.14779 z m 0.0873,14.80612 c -1.71212,1.71212 -3.76759,2.566 -6.16192,2.566 -2.92694,0 -5.20237,-0.98188 -6.81767,-2.94004 -1.6198,-1.96302 -2.42964,-4.76233 -2.42964,-8.40665 0,-2.49114 0.38677,-4.61698 1.16654,-6.37314 0.77852,-1.76053 1.87494,-3.10735 3.29224,-4.04482 1.41719,-0.93323 3.04572,-1.39972 4.8811,-1.39972 2.3327,0 4.32653,0.76605 5.97702,2.28878 v -10.92861 c 0,-1.1316 0.89331,-2.05547 1.98498,-2.05547 1.09168,0 1.98511,0.92449 1.98511,2.05547 v 29.72241 c 0,0.76105 -0.62132,1.382 -1.38649,1.382 h -1.10416 c -0.76105,0 -1.38636,-0.62008 -1.38636,-1.382 z" />
    <path
       inkscape:connector-curvature="0"
       id="path7796"
       style="fill:#2c5574;fill-opacity:1;fill-rule:nonzero;stroke:none;stroke-width:4.40136"
       d="m 209.0346,234.40044 h -1.35118 c -2.83886,0 -4.99564,0.39675 -6.47009,1.19274 -1.48318,0.79224 -2.21828,1.96738 -2.21828,3.52106 0,1.15281 0.33436,2.03351 1.00309,2.64086 0.66873,0.61133 1.65923,0.91077 2.96649,0.91077 1.02555,0 2.0158,-0.18465 2.96649,-0.55894 0.94695,-0.37429 1.70339,-0.8409 2.26233,-1.39959 0.55894,-0.56393 0.8409,-1.07421 0.8409,-1.54482 z m 0.0873,8.68825 c -0.99436,0.99436 -2.05983,1.71212 -3.19543,2.14792 -1.14033,0.43168 -2.43836,0.65126 -3.90395,0.65126 -2.20956,0 -3.93041,-0.55894 -5.15845,-1.67694 -1.22767,-1.12287 -1.84412,-2.74204 -1.84412,-4.85914 0,-2.49115 1.05175,-4.41449 3.15138,-5.77017 2.09939,-1.35118 5.05278,-2.09502 8.85106,-2.21828 0.93323,0 1.58898,0.0125 1.95866,0.0499 v -0.69992 c 0,-1.55804 -0.37804,-2.66281 -1.14408,-3.31857 -0.76105,-0.65126 -1.9982,-0.97689 -3.71033,-0.97689 -1.21519,0 -2.31073,0.14472 -3.29224,0.44416 -0.52401,0.15345 -1.05674,0.37803 -1.60208,0.66498 0,0 -0.40548,0.22957 -0.52775,0.30318 -0.23331,0.0998 -0.48782,0.1809 -0.76105,0.1809 -0.91951,0 -1.66372,-0.74358 -1.66372,-1.66371 0,-0.47535 0.19838,-0.90703 0.51902,-1.20646 0.26449,-0.24204 0.61133,-0.48907 0.88457,-0.64253 0.83591,-0.46661 1.88816,-0.82718 3.15138,-1.09542 1.26323,-0.2645 2.5131,-0.39674 3.75874,-0.39674 2.92694,0 5.04391,0.62506 6.35118,1.8662 1.30714,1.25 1.96302,3.34939 1.96302,6.30714 v 9.19878 3.70596 c 0,0.76604 -0.62506,1.38649 -1.38649,1.38649 h -1.01183 c -0.76105,0 -1.38636,-0.62132 -1.38636,-1.38649 z" />
    <path
       inkscape:connector-curvature="0"
       id="path7800"
       style="fill:#2c5574;fill-opacity:1;fill-rule:nonzero;stroke:none;stroke-width:4.40136"
       d="m 139.17083,244.08467 c 0,0.76105 0.62506,1.38637 1.38637,1.38637 h 1.33808 c 0.76105,0 1.38637,-0.62507 1.38637,-1.38637 v -27.94429 c 0,-1.1316 -0.9245,-2.05534 -2.05535,-2.05534 -1.1316,0 -2.05547,0.92449 -2.05547,2.05534 v 0.16719 z" />
    <path
       inkscape:connector-curvature="0"
       id="path7804"
       style="fill:#2c5574;fill-opacity:1;fill-rule:nonzero;stroke:none;stroke-width:4.40136"
       d="m 187.772,231.61873 c 0,0.34809 -0.28571,0.63379 -0.6338,0.63379 h -10.27723 c 0.12477,-1.83538 0.69992,-3.29224 1.72535,-4.3662 1.02555,-1.07421 2.36351,-1.61082 4.01413,-1.61082 3.27016,0 4.99114,1.77813 5.17155,5.33886 z m 0.5502,9.9471 c -1.27208,0.82344 -2.78608,1.24139 -4.55098,1.24139 -2.1831,0 -3.85567,-0.65625 -5.02196,-1.95865 -1.16653,-1.31151 -1.79584,-3.17771 -1.88829,-5.60722 h 13.57821 c 0.72612,0 1.316,-0.59388 1.316,-1.316 v -1.29841 c 0,-1.89702 -0.34809,-3.5827 -1.04801,-5.04841 -0.70366,-1.45686 -1.72086,-2.58796 -3.05894,-3.3802 -1.34232,-0.79724 -2.96212,-1.19274 -4.85902,-1.19274 -1.90139,0 -3.618,0.45289 -5.15845,1.35568 -1.54481,0.90203 -2.74204,2.19183 -3.60028,3.87314 -0.85338,1.68143 -1.28082,3.70596 -1.28082,6.07396 0,3.85992 0.91576,6.80445 2.7509,8.82473 1.83975,2.02453 4.47175,3.03686 7.896,3.03686 2.8653,0 5.13636,-0.62506 6.81767,-1.86608 0.2907,-0.22457 0.51527,-0.45289 0.6862,-0.67372 0.12476,-0.14972 0.15845,-0.24703 0.15845,-0.24703 0.14098,-0.23705 0.21958,-0.51527 0.21958,-0.80971 0,-0.88457 -0.72113,-1.60645 -1.60645,-1.60645 -0.37803,0 -0.72612,0.13225 -0.99935,0.34809 0,0 -0.15346,0.12476 -0.35183,0.25077" />
    <path
       inkscape:connector-curvature="0"
       id="path7808"
       style="fill:#2c5574;fill-opacity:1;fill-rule:nonzero;stroke:none;stroke-width:4.40136"
       d="m 303.5665,224.4466 0.47161,1.31164 c 0.87209,-0.86711 1.93657,-1.54494 3.19979,-2.02902 1.25874,-0.48408 2.62315,-0.72238 4.08886,-0.72238 1.8969,0 3.4462,0.41796 4.64343,1.25886 1.19648,0.8409 2.00257,2.05534 2.40755,3.64432 0.21584,0.84091 0.32563,2.27106 0.32563,4.29572 v 11.98485 c 0,0.70491 -0.5764,1.28082 -1.27632,1.28082 h -1.42168 c -0.69992,0 -1.27645,-0.5764 -1.27645,-1.28082 l 0.004,-11.84399 c 0,-1.52735 -0.0873,-2.60131 -0.28196,-3.22188 -0.24703,-0.87085 -0.73111,-1.50964 -1.448,-1.91898 -0.71739,-0.40049 -1.69453,-0.60261 -2.94016,-0.60261 -1.12287,0 -2.12584,0.15471 -3.0149,0.46662 -0.88457,0.3119 -1.58012,0.72237 -2.07306,1.2364 -0.50155,0.51527 -0.75232,1.04801 -0.75232,1.61081 l 0.009,14.27363 c 0,0.70491 -0.57641,1.28082 -1.28082,1.28082 h -1.41718 c -0.70491,0 -1.27645,-0.5764 -1.27645,-1.28082 v -19.1591 c 0,-0.94196 0.76105,-1.70775 1.70775,-1.70775 0.73486,0 1.36441,0.4716 1.60208,1.12286" />
    <path
       inkscape:connector-curvature="0"
       id="path7812"
       style="fill:#2c5574;fill-opacity:1;fill-rule:nonzero;stroke:none;stroke-width:4.40136"
       d="m 256.1295,215.92667 c 0.50155,0.36056 0.91077,0.94695 0.91077,1.61094 0,1.03054 -0.83591,1.86608 -1.87057,1.86608 -0.41421,0 -0.77478,-0.15845 -1.10041,-0.35683 -0.19338,-0.12476 -0.58139,-0.3693 -0.76979,-0.47534 -0.56767,-0.30817 -1.13534,-0.57267 -1.8133,-0.79724 -1.12287,-0.37429 -2.26233,-0.56393 -3.41102,-0.56393 -1.87057,0 -3.3011,0.41422 -4.29571,1.24139 -0.99936,0.82344 -1.49654,1.96752 -1.49654,3.43311 0,0.8409 0.19339,1.58012 0.58514,2.21828 0.38677,0.63879 1.03429,1.2102 1.94106,1.72535 0.8983,0.51527 2.34592,1.08294 4.33963,1.70326 2.83449,0.90703 4.90319,2.09951 6.21033,3.57396 1.30727,1.48331 1.96302,3.32743 1.96302,5.53686 0,2.95775 -0.94196,5.28608 -2.82563,6.98061 -1.8838,1.6989 -4.45853,2.54404 -7.72882,2.54404 -1.71212,0 -3.30983,-0.18465 -4.78865,-0.55893 -1.47881,-0.37429 -2.63637,-0.8721 -3.47702,-1.49641 -0.3431,-0.21085 -0.82343,-0.66873 -0.99935,-0.9195 -0.21085,-0.30817 -0.34809,-0.67747 -0.34809,-1.08669 0,-1.02929 0.83591,-1.8662 1.87057,-1.8662 0.3693,0 0.71365,0.0998 0.99935,0.29069 0,0 0.34809,0.21584 0.60261,0.36556 0.6288,0.36056 1.28082,0.67372 1.95853,0.92824 1.38649,0.53273 2.78171,0.79723 4.1813,0.79723 2.05547,0 3.62674,-0.47535 4.71829,-1.42604 1.08669,-0.9457 1.6329,-2.26669 1.6329,-3.94363 0,-1.03055 -0.18465,-1.91898 -0.55894,-2.66282 -0.37429,-0.74858 -0.98188,-1.39522 -1.82216,-1.94106 -0.84091,-0.54147 -2.09951,-1.07795 -3.78519,-1.61082 -2.33269,-0.68245 -4.10208,-1.40408 -5.2993,-2.16987 -1.20147,-0.76106 -2.09502,-1.69017 -2.68478,-2.77735 -0.59387,-1.09168 -0.88956,-2.38547 -0.88956,-3.87751 0,-1.80457 0.42295,-3.34951 1.26323,-4.62584 0.8409,-1.27208 2.01579,-2.25347 3.52542,-2.94016 1.50964,-0.68245 3.24384,-1.03054 5.20686,-1.03054 1.24514,0 2.52196,0.14971 3.8291,0.4716 2.29315,0.56393 3.91731,1.61531 4.22535,1.83976" />
    <path
       inkscape:connector-curvature="0"
       id="path7816"
       style="fill:#2c5574;fill-opacity:1;fill-rule:nonzero;stroke:none;stroke-width:4.40136"
       d="m 339.01503,228.79659 c -0.96442,-0.93323 -1.85298,-1.56253 -2.65845,-1.89253 -0.80971,-0.32563 -1.71649,-0.48907 -2.71122,-0.48907 -1.83539,0 -3.25257,0.69493 -4.25167,2.07743 -0.99436,1.38636 -1.49204,3.34065 -1.49204,5.86261 0,5.63367 1.97612,8.45057 5.92861,8.45057 1.40396,0 2.61877,-0.30816 3.64432,-0.93323 1.0293,-0.62007 1.54045,-1.33795 1.54045,-2.14779 z m 0.0873,14.80612 c -1.71213,1.71212 -3.76323,2.566 -6.16192,2.566 -2.92694,0 -5.198,-0.98188 -6.81767,-2.94004 -1.6198,-1.96302 -2.42964,-4.76233 -2.42964,-8.40665 0,-2.49114 0.38677,-4.61698 1.16654,-6.37314 0.77852,-1.76053 1.87493,-3.10735 3.29224,-4.04482 1.41718,-0.93323 3.04571,-1.39972 4.8811,-1.39972 2.33706,0 4.32653,0.76605 5.97702,2.28878 v -10.92861 c 0,-1.1316 0.8933,-2.05547 1.98498,-2.05547 1.09168,0 1.9851,0.92449 1.9851,2.05547 v 29.72241 c 0,0.76105 -0.62007,1.382 -1.38212,1.382 h -1.10914 c -0.76106,0 -1.38637,-0.62008 -1.38637,-1.382 z" />
    <path
       inkscape:connector-curvature="0"
       id="path7820"
       style="fill:#2c5574;fill-opacity:1;fill-rule:nonzero;stroke:none;stroke-width:4.40136"
       d="m 290.66614,234.40044 h -1.35568 c -2.83436,0 -4.99114,0.39675 -6.46559,1.19274 -1.47881,0.79224 -2.21828,1.96738 -2.21828,3.52106 0,1.15281 0.33436,2.03351 1.00309,2.64086 0.66873,0.61133 1.65486,0.91077 2.96649,0.91077 1.02555,0 2.0158,-0.18465 2.96649,-0.55894 0.94695,-0.37429 1.70339,-0.8409 2.26233,-1.39959 0.55893,-0.56393 0.8409,-1.07421 0.8409,-1.54482 z m 0.0873,8.68825 c -0.99935,0.99436 -2.0642,1.71212 -3.19543,2.14792 -1.14033,0.43168 -2.43836,0.65126 -3.90396,0.65126 -2.20955,0 -3.9304,-0.55894 -5.15845,-1.67694 -1.23265,-1.12287 -1.84848,-2.74204 -1.84848,-4.85914 0,-2.49115 1.05175,-4.41449 3.15575,-5.77017 2.09939,-1.35118 5.05278,-2.09502 8.85106,-2.21828 0.93323,0 1.58449,0.0125 1.95865,0.0499 v -0.69992 c 0,-1.55804 -0.37803,-2.66281 -1.14407,-3.31857 -0.76106,-0.65126 -1.99821,-0.97689 -3.71033,-0.97689 -1.21519,0 -2.31073,0.14472 -3.29224,0.44416 -0.52401,0.15345 -1.06049,0.37803 -1.60208,0.66498 0,0 -0.40548,0.22957 -0.52775,0.30318 -0.23705,0.0998 -0.48907,0.1809 -0.76106,0.1809 -0.9195,0 -1.66371,-0.74358 -1.66371,-1.66371 0,-0.47535 0.19837,-0.90703 0.51901,-1.20646 0.25951,-0.24204 0.6076,-0.48907 0.88083,-0.64253 0.8409,-0.46661 1.89253,-0.82718 3.15575,-1.09542 1.25874,-0.2645 2.51311,-0.39674 3.75874,-0.39674 2.92694,0 5.04392,0.62506 6.35118,1.8662 1.30714,1.25 1.95853,3.34939 1.95853,6.30714 v 9.19878 3.70596 c 0,0.76604 -0.62007,1.38649 -1.382,1.38649 h -1.01183 c -0.76105,0 -1.38636,-0.62132 -1.38636,-1.38649 z" />
    <path
       inkscape:connector-curvature="0"
       id="path7824"
       style="fill:#2c5574;fill-opacity:1;fill-rule:nonzero;stroke:none;stroke-width:4.40136"
       d="m 361.71291,234.40044 h -1.35567 c -2.83437,0 -4.99115,0.39675 -6.4656,1.19274 -1.48318,0.79224 -2.22265,1.96738 -2.22265,3.52106 0,1.15281 0.33437,2.03351 1.0031,2.64086 0.67372,0.61133 1.65934,0.91077 2.97098,0.91077 1.02555,0 2.01143,-0.18465 2.96212,-0.55894 0.95069,-0.37429 1.70775,-0.8409 2.26669,-1.39959 0.55894,-0.56393 0.84091,-1.07421 0.84091,-1.54482 z m 0.0873,8.68825 c -0.99935,0.99436 -2.0642,1.71212 -3.19979,2.14792 -1.13534,0.43168 -2.434,0.65126 -3.89959,0.65126 -2.20956,0 -3.93041,-0.55894 -5.15845,-1.67694 -1.23266,-1.12287 -1.84412,-2.74204 -1.84412,-4.85914 0,-2.49115 1.048,-4.41449 3.15138,-5.77017 2.09939,-1.35118 5.04829,-2.09502 8.85106,-2.21828 0.93323,0 1.58449,0.0125 1.95866,0.0499 v -0.69992 c 0,-1.55804 -0.37804,-2.66281 -1.14408,-3.31857 -0.76105,-0.65126 -1.9982,-0.97689 -3.71033,-0.97689 -1.21519,0 -2.31073,0.14472 -3.29224,0.44416 -0.52401,0.15345 -1.06049,0.37803 -1.60208,0.66498 0,0 -0.40548,0.22957 -0.52775,0.30318 -0.23705,0.0998 -0.48782,0.1809 -0.76604,0.1809 -0.91576,0 -1.65935,-0.74358 -1.65935,-1.66371 0,-0.47535 0.19338,-0.90703 0.51901,-1.20646 0.25951,-0.24204 0.6076,-0.48907 0.88083,-0.64253 0.8409,-0.46661 1.89253,-0.82718 3.15575,-1.09542 1.25874,-0.2645 2.5131,-0.39674 3.75874,-0.39674 2.92694,0 5.03955,0.62506 6.35118,1.8662 1.30714,1.25 1.95853,3.34939 1.95853,6.30714 v 9.19878 3.70596 c 0,0.76604 -0.62007,1.38649 -1.382,1.38649 h -1.01183 c -0.76105,0 -1.38636,-0.62132 -1.38636,-1.38649 z" />
    <path
       inkscape:connector-curvature="0"
       id="path7828"
       style="fill:#2c5574;fill-opacity:1;fill-rule:nonzero;stroke:none;stroke-width:4.40136"
       d="m 399.78907,228.79659 c -0.96442,-0.93323 -1.85298,-1.56253 -2.65845,-1.89253 -0.8147,-0.32563 -1.71649,-0.48907 -2.71122,-0.48907 -1.83539,0 -3.25257,0.69493 -4.25167,2.07743 -0.99437,1.38636 -1.49204,3.34065 -1.49204,5.86261 0,5.63367 1.97612,8.45057 5.92861,8.45057 1.40395,0 2.6144,-0.30816 3.64432,-0.93323 1.02555,-0.62007 1.54045,-1.33795 1.54045,-2.14779 z m 0.0873,14.80612 c -1.71213,1.71212 -3.7676,2.566 -6.16192,2.566 -2.92694,0 -5.198,-0.98188 -6.82217,-2.94004 -1.6153,-1.96302 -2.42514,-4.76233 -2.42514,-8.40665 0,-2.49114 0.38677,-4.61698 1.16653,-6.37314 0.77853,-1.76053 1.87494,-3.10735 3.29225,-4.04482 1.41718,-0.93323 3.04571,-1.39972 4.8811,-1.39972 2.33706,0 4.32653,0.76605 5.97702,2.28878 v -10.92861 c 0,-1.1316 0.8933,-2.05547 1.98498,-2.05547 1.09168,0 1.9851,0.92449 1.9851,2.05547 v 29.72241 c 0,0.76105 -0.62506,1.382 -1.38649,1.382 h -1.10415 c -0.76105,0 -1.38637,-0.62008 -1.38637,-1.382 z" />
    <path
       inkscape:connector-curvature="0"
       id="path7832"
       style="fill:#2c5574;fill-opacity:1;fill-rule:nonzero;stroke:none;stroke-width:4.40136"
       d="m 273.83536,244.33582 c 0.32064,-0.30817 0.53274,-0.73486 0.53274,-1.21519 0,-0.5814 -0.30317,-1.09542 -0.76604,-1.38637 -0.25078,-0.16219 -0.5552,-0.25951 -0.87958,-0.25951 -0.36057,0 -0.68246,0.13225 -0.96442,0.31316 -0.31191,0.19338 -0.70366,0.44415 -1.14907,0.64752 -0.50653,0.22831 -1.03428,0.32563 -1.5624,0.32563 -2.02466,0 -3.03698,-1.27645 -3.03698,-3.82923 v -12.04648 h 5.57216 c 0.76105,0 1.38637,-0.62507 1.38637,-1.38649 v -0.59388 c 0,-0.76105 -0.62507,-1.38649 -1.38637,-1.38649 h -5.57216 v -4.78428 c 0,-1.09168 -0.89331,-1.98498 -1.98498,-1.98498 -1.09168,0 -1.98498,0.8933 -1.98498,1.98498 v 19.91616 c 0,1.80894 0.15346,3.14702 0.46661,4.01849 0.83591,2.33706 2.8169,3.50347 5.93298,3.50347 0.99436,0 1.9191,-0.12726 2.77735,-0.37429 1.31163,-0.37803 2.1962,-1.06049 2.61877,-1.46122" />
    <path
       inkscape:connector-curvature="0"
       id="path7836"
       style="fill:#2c5574;fill-opacity:1;fill-rule:nonzero;stroke:none;stroke-width:4.40136"
       d="m 380.99091,227.1204 c 0.22832,0.0624 0.45788,0.13225 0.70366,0.13225 1.10041,0 1.99384,-0.8933 1.99384,-1.99371 0,-0.70491 -0.3693,-1.32486 -0.92449,-1.67694 -0.41422,-0.26824 -0.8983,-0.38802 -1.49654,-0.48907 -0.34808,-0.0624 -0.73111,-0.0873 -1.14407,-0.0873 -0.99436,0 -1.94531,0.25078 -2.84759,0.74858 -0.90204,0.4978 -1.66372,1.13534 -2.19633,1.9453 l -0.47036,-1.3115 c -0.23829,-0.65626 -0.8671,-1.12287 -1.60208,-1.12287 -0.94196,0 -1.70775,0.76604 -1.70775,1.70763 v 19.22073 c 0,0.69992 0.5764,1.27645 1.27645,1.27645 h 1.42167 c 0.69992,0 1.27633,-0.5764 1.27633,-1.27645 h -0.004 v -14.22959 c 0,-0.80971 0.40423,-1.53159 1.21519,-2.16988 0.80472,-0.63753 1.74294,-0.95942 2.79918,-0.95942 0.65626,0 1.15281,0.13599 1.70776,0.2857" />
    <path
       inkscape:connector-curvature="0"
       id="path7840"
       style="fill:#2c5574;fill-opacity:1;fill-rule:nonzero;stroke:none;stroke-width:4.40136"
       d="m 222.85035,242.00799 c -0.41795,-0.38302 -0.4978,-0.7885 -0.4978,-1.78698 v -22.38971 -3.53865 c 0,-1.08669 -0.89331,-1.98062 -1.98511,-1.98062 -1.09167,0 -1.98497,0.89331 -1.98497,1.98062 v 3.53865 22.51298 c 0,1.14033 0.13599,2.07306 0.40922,2.7993 0.27323,0.72612 0.65999,1.28955 1.16653,1.69453 0.50155,0.40049 1.12661,0.67372 1.86608,0.81471 0.72612,0.14098 1.6329,0.0998 2.52196,0.0748 0.89829,-0.0374 1.65935,-0.60759 1.65935,-1.53159 0,-0.92449 -0.57266,-1.43926 -1.34682,-1.59334 -0.60759,-0.12477 -1.48767,-0.29944 -1.80894,-0.59013" />
    <path
       inkscape:connector-curvature="0"
       id="path7844"
       style="fill:#2c5574;fill-opacity:1;fill-rule:nonzero;stroke:none;stroke-width:4.40136"
       d="m 292.56316,107.42106 c -20.40474,0 -42.18261,15.528 -42.18261,42.18261 0,7.23151 1.9322,14.31331 5.4489,20.58514 0.0748,0.12476 0.20211,0.34809 0.40922,0.65126 v 0 c 1.10914,1.69453 3.35375,2.26682 5.1451,1.25886 1.75616,-0.99062 2.44273,-3.14253 1.63739,-4.9471 -0.0499,-0.12476 -0.19837,-0.39675 -0.22457,-0.44915 -3.01927,-5.21559 -4.73576,-11.02979 -4.73576,-17.09926 0,-20.01735 15.18465,-34.87637 34.5022,-34.87637 18.89061,0 34.51106,14.64331 34.51106,34.87637 0,19.55086 -14.6433,34.82359 -34.4891,34.82359 -0.0624,0 -0.2333,0.004 -0.2645,0.004 -2.02902,0 -3.67514,1.64612 -3.67514,3.67951 0,2.02914 1.64612,3.67514 3.67514,3.67514 h 0.24204 c 22.23564,0 42.18261,-17.62739 42.18261,-42.18261 0,-26.71188 -21.87918,-42.18261 -42.18261,-42.18261" />
    <path
       inkscape:connector-curvature="0"
       id="path7848"
       style="fill:#2c5574;fill-opacity:1;fill-rule:nonzero;stroke:none;stroke-width:4.40136"
       d="m 287.31226,128.96351 c -0.0624,-0.11229 -0.24703,-0.43168 -0.44041,-0.72238 -0.67372,-1.13534 -1.91012,-1.8969 -3.32743,-1.8969 -2.13457,0 -3.86441,1.72972 -3.86441,3.86878 0,0.69992 0.18964,1.35118 0.51028,1.91898 0.0499,0.0873 0.12476,0.19837 0.18964,0.32189 3.01926,5.22008 4.73139,11.09142 4.73139,17.16089 0,19.92066 -14.53327,34.872 -34.56833,34.872 -19.4231,0 -34.50657,-15.51041 -34.50657,-34.872 0,-19.55085 15.1451,-34.68273 34.47139,-34.68273 0.0998,0 0.1809,0 0.25077,0 0.009,0 0.0125,0 0.025,0 2.06857,0 3.74988,-1.68131 3.74988,-3.74988 0,-2.07306 -1.68131,-3.75 -3.74988,-3.75 h -0.24204 c -22.23563,0 -42.17811,17.62302 -42.17811,42.18261 0,26.70751 22.31048,42.17825 42.17811,42.17825 20.40474,0 42.1871,-15.52351 42.1871,-42.17825 0,-7.23138 -1.90138,-14.37918 -5.41808,-20.65114" />
  </g>
</svg>
