<?xml version="1.0" encoding="utf-8"?>
<svg width="500" height="500" viewBox="0 0 500 500" xmlns="http://www.w3.org/2000/svg">
  <path class="st0" d="M 499.818 392.409 C 499.818 391.809 499.818 391.209 499.818 390.609 L 499.818 0.209 L -0.182 0.209 L -0.182 500.209 L 391.918 500.209 C 391.918 500.209 392.018 500.209 392.018 500.209 C 393.118 500.209 397.118 500.209 398.118 500.209 C 454.018 500.209 499.318 455.009 499.618 399.209 C 499.718 397.009 499.818 394.709 499.818 392.409" style="fill: rgb(0, 137, 150);"/>
  <path class="st1" d="M 398.218 344.309 C 428.318 344.309 452.718 368.709 452.718 398.809 C 452.718 428.909 428.318 453.409 398.218 453.409 C 368.118 453.409 343.618 429.009 343.618 398.809 C 343.718 368.809 368.118 344.309 398.218 344.309 M 302.718 352.609 C 294.418 348.309 283.118 346.209 268.818 346.209 L 233.418 346.209 L 233.418 424.209 L 248.518 424.209 L 248.518 359.609 L 267.218 359.609 C 274.418 359.609 279.618 359.909 282.918 360.409 C 286.218 361.009 289.618 362.109 293.218 363.809 C 296.818 365.509 300.018 367.709 302.818 370.309 C 310.418 377.409 314.218 386.609 314.218 397.809 C 314.218 409.309 310.518 418.709 303.118 426.309 C 300.818 428.609 298.318 430.509 295.518 432.109 C 292.718 433.709 289.218 435.009 285.118 436.009 C 280.918 437.009 275.118 437.509 267.618 437.509 L 208.918 437.509 L 169.518 345.409 L 166.018 345.409 L 121.818 451.009 L 136.818 451.009 L 148.218 424.209 L 188.218 424.209 L 199.618 451.009 L 233.418 451.009 L 266.618 451.009 C 275.918 451.009 282.218 450.709 285.518 450.209 C 288.818 449.709 292.418 448.609 296.418 447.109 C 303.218 444.509 309.118 440.709 314.218 435.809 C 319.218 430.909 323.118 425.309 325.818 418.909 C 328.518 412.509 329.818 405.809 329.818 398.809 C 329.818 389.009 327.418 379.909 322.418 371.609 C 317.618 363.209 311.018 356.909 302.718 352.609 M 115.018 345.809 L 83.718 419.509 L 52.218 345.809 L 37.118 345.809 L 82.118 451.209 L 85.618 451.209 L 129.918 345.809 L 115.018 345.809 Z" style="fill: rgb(255, 255, 255);"/>
  <path class="st0" d="M 398.318 438.409 C 376.518 438.409 358.718 420.709 358.718 398.809 C 358.718 376.909 376.418 359.209 398.318 359.209 C 420.218 359.209 437.918 376.909 437.918 398.809 C 437.918 420.609 420.218 438.409 398.318 438.409 M 182.418 410.809 L 168.018 377.209 L 153.718 410.809 L 182.418 410.809 Z" style="fill: rgb(0, 137, 150);"/>
</svg>