<?xml version="1.0" encoding="UTF-8" standalone="no"?>
<!-- Created with Inkscape (http://www.inkscape.org/) -->
<svg
   xmlns:dc="http://purl.org/dc/elements/1.1/"
   xmlns:cc="http://web.resource.org/cc/"
   xmlns:rdf="http://www.w3.org/1999/02/22-rdf-syntax-ns#"
   xmlns:svg="http://www.w3.org/2000/svg"
   xmlns="http://www.w3.org/2000/svg"
   xmlns:sodipodi="http://sodipodi.sourceforge.net/DTD/sodipodi-0.dtd"
   xmlns:inkscape="http://www.inkscape.org/namespaces/inkscape"
   width="680.25348"
   height="431.40625"
   id="svg2226"
   sodipodi:version="0.32"
   inkscape:version="0.44"
   version="1.0"
   sodipodi:docbase="C:\Dokumente und Einstellungen\Andreas\Eigene Dateien\Eigene Bilder\sonstiges\Logos\Vektor\other"
   sodipodi:docname="Villeroy_&amp;_Boch_logo.svg">
  <defs
     id="defs2228" />
  <sodipodi:namedview
     id="base"
     pagecolor="#ffffff"
     bordercolor="#666666"
     borderopacity="1.0"
     inkscape:pageopacity="0.0"
     inkscape:pageshadow="2"
     inkscape:zoom="0.35"
     inkscape:cx="350"
     inkscape:cy="520"
     inkscape:document-units="px"
     inkscape:current-layer="layer1"
     inkscape:window-width="904"
     inkscape:window-height="574"
     inkscape:window-x="207"
     inkscape:window-y="207" />
  <metadata
     id="metadata2231">
    <rdf:RDF>
      <cc:Work
         rdf:about="">
        <dc:format>image/svg+xml</dc:format>
        <dc:type
           rdf:resource="http://purl.org/dc/dcmitype/StillImage" />
      </cc:Work>
    </rdf:RDF>
  </metadata>
  <g
     inkscape:label="Ebene 1"
     inkscape:groupmode="layer"
     id="layer1"
     transform="translate(-24.15897,-491.9327)">
    <g
       id="g2260">
      <path
         style="fill:#1b458f;fill-rule:nonzero;stroke:none"
         d="M 24.158966,923.33892 L 704.41246,923.33892 L 704.41246,491.93266 L 24.158966,491.93266 L 24.158966,923.33892 z "
         class="ps01"
         id="path20" />
      <path
         style="fill:white;fill-rule:nonzero;stroke:none"
         d="M 268.72492,647.52544 C 300.09441,652.94544 332.04483,655.76859 364.57618,655.76859 C 397.10751,655.76859 429.05793,652.94544 459.84651,647.51962 L 460.42744,650.00006 C 429.63884,656.6923 397.10751,660.21268 364.57618,660.21268 C 331.46392,660.21268 299.5135,656.6923 268.72492,650.0117 L 268.72492,647.52544"
         class="ps02"
         id="path40" />
      <path
         style="fill:white;fill-rule:nonzero;stroke:none"
         d="M 500.51068,662.43172 C 456.36102,671.88908 411.04952,676.87324 364.57618,676.87324 C 317.52191,676.87324 272.21041,671.88908 228.64166,662.43172 L 229.22257,659.9571 C 272.79132,668.15368 318.10284,672.43515 364.57618,672.43515 C 410.46859,672.43515 455.78009,668.15368 499.92977,659.9571 L 500.51068,662.43172"
         class="ps02"
         id="path42" />
      <path
         style="fill:white;fill-rule:nonzero;stroke:none"
         d="M 421.50601,638.0448 C 402.91667,641.65814 383.74643,643.55194 364.57618,643.55194 C 344.825,643.55194 325.65475,641.65814 307.06542,638.0448 L 307.64632,635.55272 C 326.23566,637.89964 344.825,639.10785 364.57618,639.10785 C 383.74643,639.10785 402.33577,637.89964 421.50601,635.55272 L 421.50601,638.0448"
         class="ps02"
         id="path44" />
      <path
         style="fill:white;fill-rule:nonzero;stroke:none"
         d="M 339.01584,575.50922 C 339.01584,561.17212 348.3105,552.27248 359.34792,552.27248 C 370.38535,552.27248 379.68001,561.0386 379.68001,572.94147 L 378.51817,572.94147 C 378.51817,563.23436 370.96625,556.01933 361.67159,556.01933 C 352.37692,556.01933 344.825,563.16469 344.825,575.59053 L 344.825,624.39329 L 339.01584,624.39329 L 339.01584,575.50922"
         class="ps02"
         id="path46" />
      <path
         style="fill:white;fill-rule:nonzero;stroke:none"
         d="M 339.01584,559.63267 C 343.08226,552.91733 350.63417,548.49652 359.34792,548.49652 C 372.709,548.49652 383.74643,558.15725 383.74643,575.50922 L 383.74643,624.39329 L 389.55559,624.39329 L 389.55559,575.10831 C 389.55559,555.83925 376.77542,544.62179 362.2525,544.62179 C 351.79601,544.62179 342.50133,550.52402 337.854,559.10988 L 339.01584,559.63267"
         class="ps02"
         id="path48" />
      <path
         style="fill:white;fill-rule:evenodd;stroke:none"
         d="M 365.738,836.87518 L 375.61359,823.92655 L 375.61359,836.87518 L 365.738,836.87518 z M 363.99525,839.65194 L 375.61359,839.65194 L 375.61359,847.30845 L 380.26092,847.30845 L 380.26092,839.65194 L 384.32734,839.65194 L 384.32734,836.87518 L 380.26092,836.87518 L 380.26092,819.86591 L 377.35633,819.86591 L 363.99525,837.67683 L 363.99525,839.65194"
         class="ps03"
         id="path50" />
      <path
         style="fill:white;fill-rule:evenodd;stroke:none"
         d="M 409.88768,831.58306 C 407.56401,830.21787 402.91667,829.0968 402.91667,825.76232 C 402.91667,822.75309 405.24035,821.30659 408.72584,821.30659 C 411.63043,821.30659 413.37317,822.87515 413.37317,825.80289 C 413.37317,828.49251 412.21134,830.21787 409.88768,831.58306 z M 405.24035,833.94744 C 408.72584,835.50999 413.9541,836.67763 413.9541,841.01131 C 413.9541,844.25865 411.04952,846.55337 407.56401,846.55337 C 404.07851,846.55337 401.75484,844.25865 401.75484,841.01131 C 401.75484,837.92095 402.91667,835.79467 405.24035,833.94744 z M 411.04952,831.90266 C 413.37317,830.81633 416.85868,829.05605 416.85868,826.00625 C 416.85868,822.15481 412.21134,820.22608 408.14493,820.22608 C 404.07851,820.22608 398.85025,822.43367 398.85025,826.88921 C 398.85025,830.45616 401.17393,832.06528 404.65942,833.54653 C 401.17393,835.23114 398.26934,837.0378 398.26934,840.84869 C 398.26934,845.57727 402.91667,847.62805 406.9831,847.62805 C 412.79226,847.62805 418.0205,845.09523 418.0205,839.92498 C 418.0205,835.6728 414.53501,833.58727 411.04952,831.90266"
         class="ps03"
         id="path52" />
      <path
         style="fill:white;fill-rule:nonzero;stroke:none"
         d="M 321.00742,847.30845 L 321.00742,846.5068 C 318.68375,846.5068 318.10284,846.26287 318.10284,844.53751 L 318.10284,820.22608 L 316.941,820.22608 C 315.77917,821.14979 313.45549,823.56056 308.80816,824.36221 L 308.80816,825.2046 C 311.71275,825.40215 312.87458,825.40215 312.87458,826.047 C 313.45549,826.48848 313.45549,827.24938 313.45549,828.53326 L 313.45549,844.53751 C 313.45549,846.26287 312.29367,846.5068 309.97,846.5068 L 309.97,847.30845 L 321.00742,847.30845"
         class="ps02"
         id="path54" />
      <path
         style="fill:white;fill-rule:nonzero;stroke:none"
         d="M 352.37692,820.58625 L 343.08226,820.58625 C 341.92042,820.58625 340.75858,820.58625 339.59674,820.51076 C 338.43493,820.4702 338.43493,820.38889 338.43493,819.38387 L 337.27309,819.38387 L 334.94941,826.92996 L 335.53034,826.92996 L 336.11125,825.81453 C 336.69216,824.93739 337.27309,824.37967 337.854,824.37967 L 349.47233,824.37967 L 340.75858,841.65034 C 339.59674,844.78144 338.43493,847.10508 338.43493,847.26789 C 338.43493,848.06953 339.59674,848.02879 340.17767,848.02879 C 341.92042,848.02879 342.50133,847.38976 343.08226,846.14081 L 352.37692,821.67258 L 352.37692,820.58625"
         class="ps02"
         id="path56" />
      <path
         style="fill:white;fill-rule:nonzero;stroke:none"
         d="M 70.051395,794.87489 L 329.14025,794.87489 L 329.14025,792.35953 L 70.051395,792.35953 L 70.051395,794.87489 z "
         class="ps02"
         id="path58" />
      <path
         style="fill:white;fill-rule:nonzero;stroke:none"
         d="M 357.60517,794.87489 L 664.91011,794.87489 L 664.91011,792.35953 L 357.60517,792.35953 L 357.60517,794.87489 z "
         class="ps02"
         id="path60" />
      <path
         style="fill:white;fill-rule:evenodd;stroke:none"
         d="M 326.81659,758.32371 C 326.81659,746.70534 318.68375,738.9908 307.06542,738.9908 C 294.86617,738.9908 286.73333,747.07715 286.73333,758.32371 C 286.73333,769.55281 294.86617,777.66826 307.06542,777.66826 C 318.10284,777.66826 326.81659,769.40746 326.81659,758.32371 z M 318.68375,758.32371 C 318.68375,767.83909 314.61733,775.59437 307.06542,775.59437 C 298.93257,775.59437 295.44708,767.90876 295.44708,758.32371 C 295.44708,748.79086 299.5135,741.06469 307.06542,741.06469 C 315.19826,741.06469 318.68375,748.71537 318.68375,758.32371"
         class="ps03"
         id="path62" />
      <path
         style="fill:white;fill-rule:evenodd;stroke:none"
         d="M 482.50227,747.64069 L 486.56869,747.64069 C 497.02519,747.64069 506.31985,748.52947 506.31985,761.0539 C 506.31985,769.85495 501.09161,774.67649 490.63509,774.67649 C 485.98776,774.67649 482.50227,773.90958 482.50227,769.47732 L 482.50227,747.64069 z M 482.50227,720.16905 C 483.66411,720.14576 484.82593,720.16905 485.98776,720.16905 C 499.92977,720.16905 502.83436,725.72256 502.83436,732.42644 C 502.83436,741.79667 495.86335,745.2472 487.1496,745.2472 L 482.50227,745.2472 L 482.50227,720.16905 z M 466.23661,776.72709 C 473.78852,776.72709 480.75952,777.06979 488.31144,777.06979 C 494.1206,777.06979 501.67252,776.63996 507.48169,773.83409 C 513.87176,770.42412 516.19544,765.84652 516.19544,760.62406 C 516.19544,752.19501 509.80536,746.1418 501.09161,745.1195 C 508.06259,743.16167 512.12902,738.6481 512.12902,731.65954 C 512.12902,727.14578 509.22443,722.46376 504.5771,720.41298 C 499.34884,717.86287 493.53968,717.68861 487.1496,717.77574 C 480.1786,717.86287 473.20759,717.86287 466.23661,717.94418 L 466.23661,719.73339 C 470.30301,720.33167 473.20759,719.47781 473.20759,723.82294 L 473.20759,771.27816 C 473.20759,774.76944 469.7221,774.76944 466.23661,774.93788 L 466.23661,776.72709"
         class="ps03"
         id="path64" />
      <path
         style="fill:white;fill-rule:evenodd;stroke:none"
         d="M 567.3161,758.32371 C 567.3161,746.70534 559.18328,738.9908 546.98402,738.9908 C 535.36568,738.9908 526.65193,747.07715 526.65193,758.32371 C 526.65193,769.55281 535.36568,777.66826 546.98402,777.66826 C 558.02144,777.66826 567.3161,769.40746 567.3161,758.32371 z M 558.60235,758.32371 C 558.60235,767.83909 554.53593,775.59437 546.98402,775.59437 C 539.43211,775.59437 535.36568,767.90876 535.36568,758.32371 C 535.36568,748.79086 539.43211,741.06469 546.98402,741.06469 C 555.11686,741.06469 558.60235,748.71537 558.60235,758.32371"
         class="ps03"
         id="path66" />
      <path
         style="fill:white;fill-rule:nonzero;stroke:none"
         d="M 63.6613,719.73339 C 65.984974,719.73339 68.308648,720.34913 70.051395,721.94079 C 71.213232,723.50352 72.955978,726.67538 74.698725,731.40396 L 93.868973,777.91801 L 96.773557,777.91801 L 114.78199,730.72437 C 117.10564,725.17649 119.42932,719.73339 125.81939,719.73339 L 125.81939,717.94418 L 106.06824,717.94418 L 106.06824,719.73339 C 107.81098,719.73339 110.71557,719.55912 112.45831,722.38227 C 113.03922,723.92172 113.03922,727.1516 110.71557,733.19317 L 99.097231,765.3934 L 98.516303,765.3934 L 83.993385,728.42383 C 83.993385,727.91851 82.831566,724.83378 82.831566,723.14917 C 83.412476,720.49429 86.897969,719.73339 89.802552,719.73339 L 89.802552,717.94418 L 63.6613,717.94418 L 63.6613,719.73339"
         class="ps02"
         id="path68" />
      <path
         style="fill:white;fill-rule:nonzero;stroke:none"
         d="M 167.06449,717.17727 C 162.99807,718.3682 157.76981,720.07609 153.12248,721.09857 L 153.12248,722.12087 C 155.44616,722.208 156.60798,722.71351 157.1889,723.39893 C 158.93165,724.58985 158.93165,726.63463 158.93165,728.76654 L 158.93165,770.42412 C 158.93165,774.85075 157.76981,774.85075 153.12248,775.10633 L 153.12248,776.72709 L 172.29273,776.72709 L 172.29273,775.10633 C 168.22631,774.85075 167.06449,774.85075 167.06449,770.42412 L 167.06449,717.17727"
         class="ps02"
         id="path70" />
      <path
         style="fill:white;fill-rule:nonzero;stroke:none"
         d="M 193.78665,717.17727 C 189.72023,718.3682 184.49199,720.07609 180.42557,721.09857 L 180.42557,722.12087 C 182.16832,722.208 183.33016,722.71351 184.49199,723.39893 C 185.65381,724.58985 185.65381,726.63463 185.65381,728.76654 L 185.65381,770.42412 C 185.65381,774.85075 184.49199,774.85075 180.42557,775.10633 L 180.42557,776.72709 L 199.01491,776.72709 L 199.01491,775.10633 C 194.94849,774.85075 193.78665,774.85075 193.78665,770.42412 L 193.78665,717.17727"
         class="ps02"
         id="path72" />
      <path
         style="fill:white;fill-rule:nonzero;stroke:none"
         d="M 271.6295,776.72709 L 271.6295,775.10633 C 266.98215,774.85075 265.82033,774.85075 265.82033,770.42412 L 265.82033,753.97839 C 265.82033,747.02476 269.30583,743.24298 271.6295,743.24298 C 274.53409,743.24298 275.115,746.60656 278.01958,746.60656 C 280.34325,746.60656 282.086,745.10204 282.086,742.76676 C 282.086,739.98418 279.18142,738.39234 276.27683,738.39234 C 270.46767,738.39234 266.98215,743.43471 265.23941,746.04303 L 265.23941,738.73523 C 261.75391,740.09441 257.10658,741.8838 253.04016,743.08036 L 253.04016,743.92858 C 256.52566,745.37508 257.68749,745.54934 257.68749,748.87217 L 257.68749,770.42412 C 257.68749,774.85075 255.94475,774.85075 252.45924,775.10633 L 252.45924,776.72709 L 271.6295,776.72709"
         class="ps02"
         id="path74" />
      <path
         style="fill:white;fill-rule:nonzero;stroke:none"
         d="M 611.46579,766.47972 C 609.14211,770.69716 605.07569,774.44984 599.26652,774.44984 C 589.39094,774.44984 586.48635,765.66061 586.48635,757.82402 C 586.48635,751.00409 588.81003,741.06469 597.52378,741.06469 C 601.00927,741.06469 604.49478,743.44053 604.49478,746.99002 C 604.49478,749.16267 606.23753,751.25384 607.98028,751.25384 C 610.30395,751.25384 612.0467,749.77842 612.0467,747.76256 C 611.46579,742.20322 604.49478,738.9908 597.52378,738.9908 C 585.32453,738.9908 577.7726,747.38493 577.7726,758.6897 C 577.7726,769.08222 585.32453,777.66826 596.36194,777.66826 C 603.91385,777.66826 609.72302,773.50885 612.62761,766.90374 L 611.46579,766.47972"
         class="ps02"
         id="path76" />
      <path
         style="fill:white;fill-rule:nonzero;stroke:none"
         d="M 638.18795,776.72709 L 638.18795,775.10633 C 634.12153,774.85075 632.95969,774.85075 632.95969,770.42412 L 632.95969,747.84969 C 635.28337,745.38672 637.02611,742.47626 642.83528,742.47626 C 648.06354,742.47626 650.38719,746.74026 650.38719,752.4042 L 650.38719,770.42412 C 650.38719,774.85075 649.22537,774.85075 645.73986,775.10633 L 645.73986,776.72709 L 664.3292,776.72709 L 664.3292,775.10633 C 660.26278,774.85075 659.10094,774.85075 659.10094,770.42412 L 659.10094,753.2988 C 659.10094,741.15764 650.38719,738.9908 645.73986,738.9908 C 639.9307,738.9908 636.4452,741.65715 632.95969,745.03801 L 632.95969,717.17727 C 628.89329,718.62377 623.66503,719.98896 619.59861,721.52259 L 619.59861,722.208 C 621.92228,722.71351 624.24594,723.48024 624.24594,726.12348 L 624.24594,770.42412 C 624.24594,774.85075 623.08412,774.85075 619.0177,775.10633 L 619.0177,776.72709 L 638.18795,776.72709"
         class="ps02"
         id="path78" />
      <path
         style="fill:white;fill-rule:nonzero;stroke:none"
         d="M 144.40873,776.72709 L 144.40873,775.10633 C 140.34231,774.85075 139.18047,774.85075 139.18047,770.42412 L 139.18047,738.56096 C 135.11407,740.00728 129.88581,741.54091 125.81939,743.08036 L 125.81939,743.92858 C 126.98123,744.09702 127.56214,744.18415 128.72398,744.77661 C 130.46672,745.80491 130.46672,748.18658 130.46672,749.97597 L 130.46672,770.42412 C 130.46672,774.85075 129.3049,774.85075 125.23848,775.10633 L 125.23848,776.72709 L 144.40873,776.72709"
         class="ps02"
         id="path80" />
      <path
         style="fill:white;fill-rule:nonzero;stroke:none"
         d="M 129.88581,727.47121 C 129.88581,724.80468 131.62856,722.63802 134.53314,722.63802 C 136.85682,722.63802 139.18047,724.80468 139.18047,727.47121 C 139.18047,730.13173 136.85682,732.29857 134.53314,732.29857 C 131.62856,732.29857 129.88581,730.13173 129.88581,727.47121"
         class="ps02"
         id="path82" />
      <path
         style="fill:white;fill-rule:nonzero;stroke:none"
         d="M 218.18516,750.86475 L 235.61266,750.86475 C 235.61266,744.43391 231.54624,741.08197 227.47982,741.08197 C 223.4134,741.08197 219.347,744.86374 218.18516,750.86475 z M 217.60423,753.43232 C 217.02332,754.80915 217.02332,756.27875 217.02332,757.82402 C 217.02332,766.77023 220.50882,774.44984 230.3844,774.44984 C 234.45082,774.44984 239.67908,771.44661 242.58367,766.47972 L 243.74548,766.90374 C 242.00274,771.66143 236.7745,777.66826 228.06075,777.66826 C 216.44241,777.66826 208.30957,770.19183 208.30957,758.6897 C 208.30957,747.75674 215.86149,738.9908 227.47982,738.9908 C 236.19357,738.9908 243.16458,743.86473 243.74548,753.43232 L 217.60423,753.43232"
         class="ps02"
         id="path84" />
      <path
         style="fill:white;fill-rule:nonzero;stroke:none"
         d="M 349.47233,784.56368 L 352.37692,777.66826 L 337.854,745.97336 C 336.69216,743.60315 335.53034,741.54091 332.04483,741.54091 L 332.04483,739.92597 L 351.79601,739.92597 L 351.79601,741.54091 C 349.47233,741.54091 347.72959,741.57001 347.14868,743.20824 C 347.14868,743.88783 346.56775,745.04965 347.72959,746.48451 L 357.02425,768.03082 L 365.15709,748.52947 C 365.738,746.71116 366.31892,744.41644 365.738,743.16167 C 364.57618,741.42486 362.2525,741.54091 360.50976,741.54091 L 360.50976,739.92597 L 375.61359,739.92597 L 375.61359,741.54091 C 371.54716,741.54091 369.80442,744.04481 368.64258,746.74026 L 351.79601,786.09731 C 350.05326,790.04753 347.72959,795.04333 342.50133,795.04333 C 340.75858,795.04333 339.01584,793.42257 339.01584,791.63337 C 339.01584,789.59441 340.17767,788.22922 342.50133,788.14209 C 343.66317,788.22922 344.24409,788.56611 345.40591,788.65324 C 347.72959,788.84497 348.89142,786.31214 349.47233,784.56368"
         class="ps02"
         id="path86" />
      <path
         style="fill:white;fill-rule:nonzero;stroke:none"
         d="M 415.11592,745.47967 C 419.18234,742.05806 420.34418,739.33351 420.34418,736.33592 C 420.92509,731.677 418.60143,730.03295 415.69685,730.03295 C 412.79226,730.03295 411.04952,733.04219 411.04952,734.80229 C 411.04952,737.48609 412.21134,739.26966 413.37317,742.3311 C 413.9541,743.14439 414.53501,744.2249 415.11592,745.47967 z M 422.66785,769.63994 C 418.60143,764.51626 413.9541,757.38254 410.46859,752.05549 C 407.56401,755.33194 405.24035,759.23577 405.24035,763.8423 C 405.24035,769.91298 409.30675,773.61344 413.9541,773.61344 C 417.43959,773.61344 420.34418,771.78931 422.66785,769.63994 z M 429.63884,764.74273 C 429.05793,765.21331 429.05793,765.69554 428.47702,766.17758 C 429.05793,766.72366 429.63884,767.22335 429.63884,767.67647 C 432.54342,770.73209 435.448,772.93367 440.09535,772.93367 C 442.41901,772.93367 444.16176,772.16694 446.48543,769.59337 L 447.06634,770.49961 C 445.32359,773.70057 441.25717,777.66826 436.60984,777.66826 C 431.96251,777.66826 428.47702,775.59437 424.99151,772.37031 L 424.4106,771.62669 C 420.92509,775.05412 416.85868,777.66826 411.63043,777.66826 C 401.17393,777.66826 397.68842,770.68552 397.68842,765.25988 C 397.68842,757.98664 404.07851,753.38593 409.30675,749.85391 C 408.14493,748.0647 407.56401,746.61821 406.9831,745.7236 C 405.82126,743.73685 404.65942,740.33853 404.65942,738.1193 C 404.65942,732.29857 408.72584,728.12187 415.69685,728.12187 C 422.08692,728.12187 426.15334,731.66536 425.57243,736.71937 C 424.99151,741.10525 420.34418,744.51522 416.27776,747.55355 C 419.18234,752.61321 423.24876,759.41004 427.31518,764.24322 C 427.31518,763.85977 427.31518,763.53452 427.89609,763.29059 C 429.05793,760.47308 431.3816,756.31367 431.3816,752.19501 C 431.3816,749.55177 429.63884,748.78504 427.31518,748.78504 L 427.31518,747.39657 L 441.8381,747.39657 L 441.8381,748.78504 C 436.60984,748.86053 434.86709,752.94445 433.12435,756.78426 C 432.54342,759.13118 430.21976,762.7909 429.63884,764.74273"
         class="ps02"
         id="path88" />
    </g>
  </g>
</svg>
